<?xml version="1.0" encoding="utf-8"?>
<svg xmlns="http://www.w3.org/2000/svg" height="512pt" version="1.1" viewBox="0 0 512 512" width="512pt">
<path d="M 0.00 0.00 L 512.00 0.00 L 512.00 512.00 L 0.00 512.00 L 0.00 383.90 C 10.69 384.93 21.31 386.67 32.03 387.35 C 42.69 387.01 53.31 385.82 63.96 385.28 C 65.71 385.22 67.52 385.19 69.16 385.89 C 79.68 390.29 89.96 395.25 100.55 399.49 C 108.92 403.68 117.90 406.44 126.28 410.61 C 132.93 413.40 139.58 416.27 146.37 418.71 C 160.62 423.10 175.32 425.79 189.81 429.25 C 191.78 429.71 193.57 430.67 195.32 431.66 C 191.47 432.70 187.50 433.28 183.69 434.46 C 197.41 436.07 211.24 436.87 224.94 438.74 C 228.60 439.13 232.46 440.11 235.99 438.52 C 236.35 438.69 237.07 439.03 237.43 439.20 C 244.22 439.44 250.72 436.98 257.25 435.43 C 304.31 422.51 350.97 408.20 397.84 394.63 C 403.90 393.04 409.85 391.10 415.80 389.14 C 427.00 385.73 438.30 382.69 449.49 379.22 C 449.49 376.59 449.49 373.95 449.50 371.33 C 439.67 366.81 430.08 361.83 420.12 357.62 C 413.75 354.00 406.77 351.69 400.31 348.26 C 399.02 347.75 397.68 347.36 396.37 346.95 C 396.20 342.18 396.60 337.39 395.93 332.65 C 397.21 330.92 398.50 329.20 399.95 327.62 C 407.08 321.46 413.09 314.11 419.23 307.01 C 421.45 298.02 424.92 289.30 426.38 280.16 L 426.42 279.81 C 425.19 274.91 424.54 269.90 423.41 264.98 C 420.21 252.33 418.76 239.32 415.63 226.66 C 415.28 224.55 414.87 222.45 414.34 220.38 C 411.71 210.93 406.72 202.42 402.45 193.66 C 399.46 189.04 397.99 183.58 394.49 179.30 C 393.99 176.40 393.17 173.57 392.37 170.74 C 391.73 172.23 391.09 173.71 390.50 175.22 C 385.79 186.49 380.19 197.35 375.18 208.49 C 372.11 215.24 369.24 222.16 367.59 229.40 C 365.94 240.08 364.75 250.84 363.02 261.51 C 361.13 271.47 359.99 281.55 358.63 291.58 C 357.87 297.16 357.01 302.73 356.41 308.33 C 358.07 308.27 359.73 308.21 361.39 308.14 C 367.77 315.27 374.78 321.79 381.39 328.70 C 382.89 330.04 382.39 332.19 382.53 333.97 C 382.38 341.08 382.33 348.18 382.42 355.29 C 382.08 355.04 381.39 354.53 381.05 354.28 C 382.40 349.89 381.72 345.26 381.64 340.75 C 371.56 335.58 361.34 330.68 351.05 325.95 C 349.97 325.28 348.74 325.67 347.62 325.93 C 347.28 326.03 346.60 326.24 346.26 326.34 C 345.99 324.29 345.76 322.24 345.35 320.22 C 345.70 320.35 346.38 320.62 346.72 320.76 C 346.26 307.00 346.76 293.23 346.28 279.49 L 346.28 279.41 C 347.14 271.61 345.44 263.69 347.34 255.97 C 347.61 250.34 340.99 249.65 337.08 247.95 C 312.11 237.51 287.17 227.00 262.48 215.90 C 262.66 214.65 262.76 213.40 262.80 212.15 C 262.17 173.44 262.82 134.72 262.55 96.00 C 262.36 91.76 263.14 87.38 261.92 83.24 C 258.48 79.75 253.54 78.61 249.18 76.71 C 246.05 75.51 242.85 73.55 239.36 74.35 C 226.59 77.20 213.91 80.44 201.37 84.18 C 184.16 88.76 166.61 91.93 149.35 96.33 C 149.01 96.32 148.34 96.32 148.00 96.32 C 148.41 118.20 148.00 140.10 148.12 161.99 C 148.08 183.34 148.25 204.69 148.15 226.04 C 148.06 230.95 148.64 235.89 147.78 240.77 C 145.47 240.19 143.08 240.24 140.74 240.59 C 140.55 241.04 140.18 241.95 140.00 242.40 C 139.91 272.09 140.62 301.81 139.83 331.50 C 139.46 337.27 139.39 343.07 139.67 348.86 L 139.32 348.85 C 139.39 343.21 139.39 337.58 139.43 331.95 C 136.90 332.24 134.41 332.78 131.99 333.57 C 133.84 331.50 135.67 329.42 137.57 327.40 C 137.71 326.38 137.85 325.36 137.97 324.34 C 138.64 320.31 137.86 316.23 136.24 312.54 C 134.05 307.56 132.68 302.28 130.55 297.28 C 128.09 291.74 127.02 285.71 124.51 280.19 C 121.72 273.51 118.52 266.99 116.19 260.13 C 115.32 257.45 113.96 254.95 111.94 252.98 L 111.95 252.68 C 112.11 251.04 112.24 249.38 112.34 247.73 C 109.36 252.96 107.46 258.69 105.16 264.23 C 101.53 272.74 97.86 281.27 94.97 290.07 C 91.08 300.80 86.06 311.29 84.33 322.67 C 83.90 325.14 83.57 327.63 83.29 330.13 C 83.89 330.39 85.09 330.90 85.69 331.15 C 91.13 333.51 96.22 336.65 101.06 340.07 C 96.56 341.16 92.19 342.67 87.80 344.12 C 78.39 347.16 69.04 350.43 59.47 352.97 C 59.45 355.40 59.42 357.83 59.52 360.26 C 54.61 360.19 49.63 360.27 44.94 361.90 C 49.87 364.03 55.25 364.45 60.44 365.58 C 54.85 368.08 48.51 367.46 42.60 368.58 C 28.37 369.79 14.25 372.14 0.00 373.04 L 0.00 0.00 Z" fill="#f6d19c" opacity="1.00" stroke="#f6d19c" stroke-width="0.25"/>
<path d="M 239.36 74.35 C 242.85 73.55 246.05 75.51 249.18 76.71 C 253.54 78.61 258.48 79.75 261.92 83.24 C 261.63 84.89 261.38 86.55 261.34 88.22 L 259.66 88.32 C 257.81 88.43 255.96 88.54 254.12 88.63 C 249.51 87.90 244.53 88.29 240.62 91.04 C 234.76 91.07 228.80 92.26 223.69 95.21 C 221.81 96.43 219.48 96.05 217.36 96.30 C 212.30 96.48 208.47 100.75 203.35 100.79 C 199.54 100.84 195.88 101.55 192.87 104.01 C 187.84 104.45 182.78 104.96 177.93 106.46 C 176.26 106.87 174.59 107.25 172.92 107.62 C 165.37 103.23 157.12 100.26 149.35 96.33 C 166.61 91.93 184.16 88.76 201.37 84.18 C 213.91 80.44 226.59 77.20 239.36 74.35 Z" fill="#fcafb5" opacity="1.00" stroke="#fcafb5" stroke-width="0.25"/>
<path d="M 261.92 83.24 C 263.14 87.38 262.36 91.76 262.55 96.00 C 262.82 134.72 262.17 173.44 262.80 212.15 C 262.47 212.05 261.81 211.85 261.48 211.75 C 261.25 170.57 261.65 129.39 261.34 88.22 C 261.38 86.55 261.63 84.89 261.92 83.24 Z" fill="#ac3a43" opacity="1.00" stroke="#ac3a43" stroke-width="0.25"/>
<path d="M 254.12 88.63 C 255.96 88.54 257.81 88.43 259.66 88.32 C 259.69 127.54 259.61 166.76 259.68 205.98 C 259.64 207.87 259.54 209.77 259.42 211.66 C 255.18 211.67 251.28 213.77 247.01 213.67 L 246.35 213.74 C 246.73 208.50 246.14 203.25 246.33 198.01 C 246.66 190.86 244.83 183.75 245.63 176.60 C 245.90 176.25 246.42 175.53 246.69 175.18 C 246.37 168.16 245.13 161.11 242.80 154.48 C 238.57 149.83 232.11 148.42 227.48 144.29 C 224.76 142.05 221.76 138.95 217.85 140.01 C 213.24 140.54 210.02 144.28 207.48 147.82 C 201.25 157.08 194.43 165.91 187.00 174.23 C 182.58 178.77 178.94 184.01 174.17 188.20 C 174.12 161.99 174.21 135.79 174.19 109.58 C 191.64 104.75 209.38 100.95 226.77 95.85 C 235.84 93.28 245.13 91.53 254.12 88.63 Z" fill="#49eeed" opacity="1.00" stroke="#49eeed" stroke-width="0.25"/>
<path d="M 259.66 88.32 L 261.34 88.22 C 261.65 129.39 261.25 170.57 261.48 211.75 L 260.64 211.71 L 259.42 211.66 C 259.54 209.77 259.64 207.87 259.68 205.98 C 259.61 166.76 259.69 127.54 259.66 88.32 Z" fill="#b0a5ae" opacity="1.00" stroke="#b0a5ae" stroke-width="0.25"/>
<path d="M 240.62 91.04 C 244.53 88.29 249.51 87.90 254.12 88.63 C 245.13 91.53 235.84 93.28 226.77 95.85 C 209.38 100.95 191.64 104.75 174.19 109.58 C 174.21 135.79 174.12 161.99 174.17 188.20 C 174.06 188.32 173.84 188.54 173.73 188.66 C 173.41 162.25 173.75 135.82 173.24 109.42 C 174.79 108.42 176.34 107.41 177.93 106.46 C 182.78 104.96 187.84 104.45 192.87 104.01 C 195.88 101.55 199.54 100.84 203.35 100.79 C 208.47 100.75 212.30 96.48 217.36 96.30 C 219.48 96.05 221.81 96.43 223.69 95.21 C 228.80 92.26 234.76 91.07 240.62 91.04 Z" fill="#da584c" opacity="1.00" stroke="#da584c" stroke-width="0.25"/>
<path d="M 148.00 96.32 C 148.34 96.32 149.01 96.32 149.35 96.33 C 157.12 100.26 165.37 103.23 172.92 107.62 C 172.44 132.75 172.95 157.89 172.43 183.01 C 171.53 191.16 171.43 199.37 171.87 207.55 C 171.69 215.36 171.86 223.17 171.68 230.98 C 171.56 237.50 171.03 244.03 171.70 250.54 C 169.82 250.38 167.97 249.96 166.15 249.48 C 162.13 247.55 158.07 245.70 153.94 244.00 C 151.91 242.88 149.87 241.78 147.78 240.77 C 148.64 235.89 148.06 230.95 148.15 226.04 C 148.25 204.69 148.08 183.34 148.12 161.99 C 148.00 140.10 148.41 118.20 148.00 96.32 Z" fill="#9b2b38" opacity="1.00" stroke="#9b2b38" stroke-width="0.25"/>
<path d="M 172.92 107.62 C 174.59 107.25 176.26 106.87 177.93 106.46 C 176.34 107.41 174.79 108.42 173.24 109.42 C 173.75 135.82 173.41 162.25 173.73 188.66 C 173.58 193.58 173.47 198.50 173.50 203.42 C 174.21 213.28 173.55 223.17 174.20 233.03 C 173.86 233.41 173.18 234.18 172.83 234.57 C 173.42 226.72 172.82 218.86 173.05 211.00 C 173.08 209.73 172.69 208.58 171.87 207.55 C 171.43 199.37 171.53 191.16 172.43 183.01 C 172.95 157.89 172.44 132.75 172.92 107.62 Z" fill="#666173" opacity="1.00" stroke="#666173" stroke-width="0.25"/>
<path d="M 207.48 147.82 C 210.02 144.28 213.24 140.54 217.85 140.01 C 221.76 138.95 224.76 142.05 227.48 144.29 C 225.50 142.70 223.27 141.44 220.83 140.71 C 218.30 140.43 215.80 141.32 213.87 142.95 C 211.86 144.58 209.79 146.48 209.12 149.08 C 208.85 151.52 209.66 153.96 210.91 156.03 C 213.00 159.75 217.60 160.46 220.91 162.72 C 220.41 162.73 219.41 162.74 218.91 162.75 C 214.90 162.26 210.42 160.50 208.75 156.52 C 207.31 153.85 207.50 150.74 207.48 147.82 Z" fill="#552d26" opacity="1.00" stroke="#552d26" stroke-width="0.25"/>
<path d="M 213.87 142.95 C 215.80 141.32 218.30 140.43 220.83 140.71 C 220.83 142.29 221.72 143.56 222.61 144.77 C 222.02 144.91 220.86 145.20 220.27 145.34 C 221.76 146.26 223.26 147.19 224.75 148.11 C 224.11 148.85 223.48 149.59 222.84 150.33 C 219.13 148.58 215.30 147.09 211.74 145.04 C 212.27 144.51 213.34 143.47 213.87 142.95 Z" fill="#ffa9d0" opacity="1.00" stroke="#ffa9d0" stroke-width="0.25"/>
<path d="M 222.61 144.77 C 221.72 143.56 220.83 142.29 220.83 140.71 C 223.27 141.44 225.50 142.70 227.48 144.29 C 232.11 148.42 238.57 149.83 242.80 154.48 C 240.00 154.91 237.27 155.65 234.67 156.76 C 234.58 156.52 234.39 156.04 234.30 155.79 C 230.61 153.72 226.68 152.12 222.84 150.33 C 223.48 149.59 224.11 148.85 224.75 148.11 C 223.26 147.19 221.76 146.26 220.27 145.34 C 220.86 145.20 222.02 144.91 222.61 144.77 Z" fill="#fab9eb" opacity="1.00" stroke="#fab9eb" stroke-width="0.25"/>
<path d="M 209.12 149.08 C 209.79 146.48 211.86 144.58 213.87 142.95 C 213.34 143.47 212.27 144.51 211.74 145.04 C 215.30 147.09 219.13 148.58 222.84 150.33 C 226.68 152.12 230.61 153.72 234.30 155.79 C 234.39 156.04 234.58 156.52 234.67 156.76 C 236.00 163.65 237.08 170.61 237.49 177.62 C 237.50 177.87 237.53 178.37 237.55 178.61 C 236.87 178.66 235.52 178.75 234.84 178.80 C 234.62 178.64 234.18 178.32 233.95 178.16 C 233.44 177.60 232.95 177.03 232.49 176.44 C 231.82 173.04 230.50 169.74 228.04 167.23 C 226.17 165.05 223.30 164.18 220.91 162.72 C 217.60 160.46 213.00 159.75 210.91 156.03 C 209.66 153.96 208.85 151.52 209.12 149.08 Z" fill="#98162c" opacity="1.00" stroke="#98162c" stroke-width="0.25"/>
<path d="M 187.00 174.23 C 194.43 165.91 201.25 157.08 207.48 147.82 C 207.50 150.74 207.31 153.85 208.75 156.52 C 210.42 160.50 214.90 162.26 218.91 162.75 C 213.76 169.28 205.56 171.90 198.39 175.49 C 196.38 176.43 194.91 178.14 193.57 179.85 C 192.49 176.73 195.69 175.13 197.53 173.32 C 196.62 172.66 195.74 171.94 194.75 171.41 C 192.03 171.89 189.86 174.16 187.00 174.23 Z" fill="#0e7ba9" opacity="1.00" stroke="#0e7ba9" stroke-width="0.25"/>
<path d="M 234.67 156.76 C 237.27 155.65 240.00 154.91 242.80 154.48 C 245.13 161.11 246.37 168.16 246.69 175.18 C 246.42 175.53 245.90 176.25 245.63 176.60 C 245.11 176.74 244.07 177.01 243.54 177.15 C 241.53 177.38 239.50 177.47 237.49 177.62 C 237.08 170.61 236.00 163.65 234.67 156.76 Z" fill="#fcf9fc" opacity="1.00" stroke="#fcf9fc" stroke-width="0.25"/>
<path d="M 218.91 162.75 C 219.41 162.74 220.41 162.73 220.91 162.72 C 223.30 164.18 226.17 165.05 228.04 167.23 C 228.66 170.66 230.09 173.87 232.49 176.44 C 232.95 177.03 233.44 177.60 233.95 178.16 C 234.18 178.32 234.62 178.64 234.84 178.80 C 237.69 184.82 238.35 191.51 239.38 198.01 C 239.91 202.22 240.87 206.58 239.48 210.74 C 234.73 209.34 230.16 207.38 225.71 205.24 C 225.25 203.70 224.78 202.17 224.22 200.67 C 223.36 198.00 220.31 197.48 217.89 197.33 C 212.79 198.22 209.53 202.46 207.44 206.86 C 201.65 213.91 196.15 221.23 191.13 228.84 C 190.41 229.37 189.66 229.85 188.92 230.36 C 184.11 231.58 179.26 233.85 174.20 233.03 C 173.55 223.17 174.21 213.28 173.50 203.42 C 181.08 196.39 187.50 188.18 193.57 179.85 C 194.91 178.14 196.38 176.43 198.39 175.49 C 205.56 171.90 213.76 169.28 218.91 162.75 Z" fill="#49eeee" opacity="1.00" stroke="#49eeee" stroke-width="0.25"/>
<path d="M 228.04 167.23 C 230.50 169.74 231.82 173.04 232.49 176.44 C 230.09 173.87 228.66 170.66 228.04 167.23 Z" fill="#81c6ce" opacity="1.00" stroke="#81c6ce" stroke-width="0.25"/>
<path d="M 187.00 174.23 C 189.86 174.16 192.03 171.89 194.75 171.41 C 195.74 171.94 196.62 172.66 197.53 173.32 C 195.69 175.13 192.49 176.73 193.57 179.85 C 187.50 188.18 181.08 196.39 173.50 203.42 C 173.47 198.50 173.58 193.58 173.73 188.66 C 173.84 188.54 174.06 188.32 174.17 188.20 C 178.94 184.01 182.58 178.77 187.00 174.23 Z" fill="#1184b3" opacity="1.00" stroke="#1184b3" stroke-width="0.25"/>
<path d="M 390.50 175.22 C 391.09 173.71 391.73 172.23 392.37 170.74 C 393.17 173.57 393.99 176.40 394.49 179.30 C 395.54 191.49 397.68 203.58 398.13 215.83 C 397.54 220.19 398.25 224.80 397.01 229.02 C 394.25 231.13 390.27 230.15 387.02 230.90 C 383.31 231.02 380.66 233.81 377.95 235.97 C 375.23 238.12 372.96 240.76 370.65 243.33 C 370.64 242.15 370.64 240.97 370.64 239.80 C 375.24 235.15 377.54 228.90 380.19 223.05 C 384.21 214.18 386.69 204.65 387.97 195.00 C 388.81 188.40 391.69 181.97 390.50 175.22 Z" fill="#39733b" opacity="1.00" stroke="#39733b" stroke-width="0.25"/>
<path d="M 243.54 177.15 C 244.07 177.01 245.11 176.74 245.63 176.60 C 244.83 183.75 246.66 190.86 246.33 198.01 C 246.14 203.25 246.73 208.50 246.35 213.74 L 245.45 214.45 C 245.05 209.09 245.71 203.46 243.41 198.43 C 242.27 202.06 243.54 205.78 243.93 209.42 C 242.40 210.05 240.87 210.69 239.35 211.34 L 239.48 210.74 C 240.87 206.58 239.91 202.22 239.38 198.01 C 238.35 191.51 237.69 184.82 234.84 178.80 C 235.52 178.75 236.87 178.66 237.55 178.61 C 237.64 181.26 238.54 183.76 239.45 186.21 C 240.15 185.43 240.86 184.65 241.56 183.87 C 242.11 185.05 242.67 186.22 243.23 187.39 C 243.58 183.99 243.63 180.57 243.54 177.15 Z" fill="#ebfbff" opacity="1.00" stroke="#ebfbff" stroke-width="0.25"/>
<path d="M 375.18 208.49 C 380.19 197.35 385.79 186.49 390.50 175.22 C 391.69 181.97 388.81 188.40 387.97 195.00 C 386.69 204.65 384.21 214.18 380.19 223.05 C 377.54 228.90 375.24 235.15 370.64 239.80 C 368.83 241.68 366.86 243.67 366.58 246.42 C 365.30 253.96 365.30 261.69 363.42 269.14 C 362.25 273.21 363.48 277.35 366.04 280.59 C 363.55 284.24 363.20 289.80 358.63 291.58 C 359.99 281.55 361.13 271.47 363.02 261.51 C 364.75 250.84 365.94 240.08 367.59 229.40 C 370.38 226.75 372.38 223.46 374.03 220.02 C 376.59 214.50 382.14 211.08 384.31 205.32 C 381.41 206.74 378.40 208.02 375.18 208.49 Z" fill="#3e5a1f" opacity="1.00" stroke="#3e5a1f" stroke-width="0.25"/>
<path d="M 237.49 177.62 C 239.50 177.47 241.53 177.38 243.54 177.15 C 243.63 180.57 243.58 183.99 243.23 187.39 C 242.67 186.22 242.11 185.05 241.56 183.87 C 240.86 184.65 240.15 185.43 239.45 186.21 C 238.54 183.76 237.64 181.26 237.55 178.61 C 237.53 178.37 237.50 177.87 237.49 177.62 Z" fill="#5ea8ee" opacity="1.00" stroke="#5ea8ee" stroke-width="0.25"/>
<path d="M 394.49 179.30 C 397.99 183.58 399.46 189.04 402.45 193.66 C 406.72 202.42 411.71 210.93 414.34 220.38 C 408.98 223.09 403.72 226.01 398.64 229.23 C 398.53 224.76 398.36 220.29 398.13 215.83 C 397.68 203.58 395.54 191.49 394.49 179.30 Z" fill="#a5e989" opacity="1.00" stroke="#a5e989" stroke-width="0.25"/>
<path d="M 207.44 206.86 C 209.53 202.46 212.79 198.22 217.89 197.33 C 217.18 198.02 216.45 198.70 215.72 199.36 C 214.48 200.30 213.24 201.23 212.04 202.22 C 211.24 203.40 210.52 204.63 209.85 205.88 C 208.43 211.25 208.78 217.26 212.23 221.81 C 206.29 219.49 207.73 211.89 207.44 206.86 Z" fill="#552d26" opacity="1.00" stroke="#552d26" stroke-width="0.25"/>
<path d="M 217.89 197.33 C 220.31 197.48 223.36 198.00 224.22 200.67 C 224.42 201.60 224.83 203.46 225.04 204.39 C 223.91 203.82 222.81 203.31 221.73 202.70 C 219.89 201.31 217.95 200.02 215.72 199.36 C 216.45 198.70 217.18 198.02 217.89 197.33 Z" fill="#cf3858" opacity="1.00" stroke="#cf3858" stroke-width="0.25"/>
<path d="M 243.93 209.42 C 243.54 205.78 242.27 202.06 243.41 198.43 C 245.71 203.46 245.05 209.09 245.45 214.45 C 245.21 214.88 244.72 215.72 244.47 216.15 C 244.33 213.90 244.17 211.66 243.93 209.42 Z" fill="#b8d1da" opacity="1.00" stroke="#b8d1da" stroke-width="0.25"/>
<path d="M 212.04 202.22 C 213.24 201.23 214.48 200.30 215.72 199.36 C 217.95 200.02 219.89 201.31 221.73 202.70 C 220.82 204.06 219.38 204.87 218.08 205.79 C 215.98 204.75 213.95 203.58 212.04 202.22 Z" fill="#f4f8ef" opacity="1.00" stroke="#f4f8ef" stroke-width="0.25"/>
<path d="M 224.22 200.67 C 224.78 202.17 225.25 203.70 225.71 205.24 C 230.16 207.38 234.73 209.34 239.48 210.74 L 239.35 211.34 C 239.74 212.99 240.32 214.58 240.85 216.19 C 239.93 214.34 238.42 212.91 236.86 211.63 C 236.28 213.04 235.72 214.47 235.15 215.89 C 233.28 215.64 231.41 215.40 229.54 215.14 C 227.81 214.86 226.08 214.62 224.33 214.48 C 223.53 213.78 222.72 213.08 221.91 212.39 C 221.26 211.78 220.62 211.17 219.99 210.54 C 221.63 209.43 223.32 208.38 225.03 207.38 C 223.52 206.50 222.02 205.60 220.53 204.70 C 222.03 204.50 223.53 204.44 225.04 204.39 C 224.83 203.46 224.42 201.60 224.22 200.67 Z" fill="#8a051b" opacity="1.00" stroke="#8a051b" stroke-width="0.25"/>
<path d="M 209.85 205.88 C 210.52 204.63 211.24 203.40 212.04 202.22 C 213.95 203.58 215.98 204.75 218.08 205.79 C 219.38 204.87 220.82 204.06 221.73 202.70 C 222.81 203.31 223.91 203.82 225.04 204.39 C 223.53 204.44 222.03 204.50 220.53 204.70 C 219.65 205.83 218.81 206.99 217.97 208.15 C 215.27 207.36 212.57 206.59 209.85 205.88 Z" fill="#f37355" opacity="1.00" stroke="#f37355" stroke-width="0.25"/>
<path d="M 375.18 208.49 C 378.40 208.02 381.41 206.74 384.31 205.32 C 382.14 211.08 376.59 214.50 374.03 220.02 C 372.38 223.46 370.38 226.75 367.59 229.40 C 369.24 222.16 372.11 215.24 375.18 208.49 Z" fill="#56702f" opacity="1.00" stroke="#56702f" stroke-width="0.25"/>
<path d="M 212.23 221.81 C 208.78 217.26 208.43 211.25 209.85 205.88 C 212.57 206.59 215.27 207.36 217.97 208.15 C 218.81 206.99 219.65 205.83 220.53 204.70 C 222.02 205.60 223.52 206.50 225.03 207.38 C 223.32 208.38 221.63 209.43 219.99 210.54 C 220.62 211.17 221.26 211.78 221.91 212.39 L 220.31 212.27 C 220.63 213.02 221.28 214.50 221.60 215.25 C 217.94 214.41 214.56 212.27 210.69 212.60 C 211.33 215.65 213.79 218.18 217.03 218.22 C 219.82 217.87 222.06 215.98 224.33 214.48 C 224.18 215.23 223.87 216.72 223.71 217.47 C 223.44 218.73 223.21 220.00 222.97 221.26 C 222.84 219.94 222.70 218.61 222.58 217.29 C 220.98 219.07 219.39 220.87 217.56 222.41 C 215.76 222.68 213.90 222.59 212.23 221.81 Z" fill="#a10b17" opacity="1.00" stroke="#a10b17" stroke-width="0.25"/>
<path d="M 171.87 207.55 C 172.69 208.58 173.08 209.73 173.05 211.00 C 172.82 218.86 173.42 226.72 172.83 234.57 C 173.18 234.18 173.86 233.41 174.20 233.03 C 179.26 233.85 184.11 231.58 188.92 230.36 C 186.46 234.94 186.28 240.34 184.04 245.01 C 183.39 246.20 181.98 246.67 180.92 247.42 C 179.28 247.99 177.65 248.59 176.01 249.16 C 174.57 249.62 173.14 250.10 171.70 250.54 C 171.03 244.03 171.56 237.50 171.68 230.98 C 171.86 223.17 171.69 215.36 171.87 207.55 Z" fill="#fc6470" opacity="1.00" stroke="#fc6470" stroke-width="0.25"/>
<path d="M 191.13 228.84 C 196.15 221.23 201.65 213.91 207.44 206.86 C 207.73 211.89 206.29 219.49 212.23 221.81 C 213.90 222.59 215.76 222.68 217.56 222.41 C 215.91 223.08 214.21 223.63 212.57 224.34 C 212.04 224.64 210.98 225.25 210.45 225.56 C 204.02 226.73 197.76 229.12 191.13 228.84 Z" fill="#0f7bae" opacity="1.00" stroke="#0f7bae" stroke-width="0.25"/>
<path d="M 239.35 211.34 C 240.87 210.69 242.40 210.05 243.93 209.42 C 244.17 211.66 244.33 213.90 244.47 216.15 C 244.72 215.72 245.21 214.88 245.45 214.45 L 246.35 213.74 L 247.01 213.67 C 248.07 219.07 247.96 224.59 247.53 230.05 C 249.07 229.61 250.62 229.18 252.16 228.73 C 255.27 227.78 258.39 226.90 261.55 226.13 C 261.59 223.05 261.49 219.96 261.77 216.89 C 261.95 216.64 262.31 216.15 262.48 215.90 C 287.17 227.00 312.11 237.51 337.08 247.95 C 340.99 249.65 347.61 250.34 347.34 255.97 C 340.58 259.43 334.17 263.55 328.19 268.21 C 325.06 270.58 321.91 273.23 317.97 274.06 C 308.93 276.26 299.73 277.73 290.74 280.16 C 288.65 280.69 286.56 281.27 284.41 281.47 C 274.78 279.85 264.96 280.73 255.24 280.22 C 251.77 279.71 248.26 279.70 244.76 279.60 C 252.90 278.93 261.18 280.77 269.20 278.76 C 272.84 278.04 276.57 278.09 280.25 277.69 C 286.39 277.09 292.16 274.73 298.12 273.33 C 301.54 272.55 304.96 271.76 308.38 270.99 C 312.75 270.09 317.13 269.03 321.22 267.19 C 321.32 267.15 321.51 267.07 321.61 267.02 C 322.92 266.47 324.24 265.93 325.56 265.38 C 324.93 260.62 324.67 255.81 324.91 251.00 C 315.45 247.82 306.51 243.33 297.19 239.79 C 289.99 236.97 283.24 232.82 275.57 231.37 C 266.53 233.78 257.45 236.06 248.34 238.17 C 248.30 243.64 248.64 249.09 248.71 254.56 L 248.69 254.59 C 248.18 255.61 247.63 256.61 247.10 257.62 C 246.45 257.83 245.14 258.25 244.49 258.46 C 244.46 257.93 244.39 256.88 244.35 256.36 L 244.28 255.37 C 243.93 249.97 243.95 244.50 242.56 239.24 C 236.82 240.87 231.05 242.37 225.15 243.31 L 224.50 243.47 C 223.34 243.53 222.19 243.59 221.03 243.63 C 222.47 243.13 223.90 242.63 225.34 242.13 L 224.19 240.53 C 218.98 237.73 213.20 240.83 207.67 240.33 C 211.76 239.53 215.80 238.49 219.78 237.25 C 226.48 235.21 233.38 233.85 239.99 231.52 C 240.67 231.25 242.04 230.72 242.73 230.45 C 241.70 225.75 241.91 220.87 240.85 216.19 C 240.32 214.58 239.74 212.99 239.35 211.34 Z" fill="#fefefd" opacity="1.00" stroke="#fefefd" stroke-width="0.25"/>
<path d="M 247.01 213.67 C 251.28 213.77 255.18 211.67 259.42 211.66 L 260.64 211.71 C 256.72 213.46 252.56 214.53 248.43 215.61 C 248.59 219.47 248.61 223.34 248.50 227.21 C 249.71 227.71 250.94 228.22 252.16 228.73 C 250.62 229.18 249.07 229.61 247.53 230.05 C 247.96 224.59 248.07 219.07 247.01 213.67 Z" fill="#ce8d97" opacity="1.00" stroke="#ce8d97" stroke-width="0.25"/>
<path d="M 260.64 211.71 L 261.48 211.75 C 261.81 211.85 262.47 212.05 262.80 212.15 C 262.76 213.40 262.66 214.65 262.48 215.90 C 262.31 216.15 261.95 216.64 261.77 216.89 C 261.49 219.96 261.59 223.05 261.55 226.13 C 258.39 226.90 255.27 227.78 252.16 228.73 C 250.94 228.22 249.71 227.71 248.50 227.21 C 248.61 223.34 248.59 219.47 248.43 215.61 C 252.56 214.53 256.72 213.46 260.64 211.71 Z" fill="#f35f6b" opacity="1.00" stroke="#f35f6b" stroke-width="0.25"/>
<path d="M 210.69 212.60 C 214.56 212.27 217.94 214.41 221.60 215.25 C 221.28 214.50 220.63 213.02 220.31 212.27 L 221.91 212.39 C 222.72 213.08 223.53 213.78 224.33 214.48 C 222.06 215.98 219.82 217.87 217.03 218.22 C 213.79 218.18 211.33 215.65 210.69 212.60 Z" fill="#cc413d" opacity="1.00" stroke="#cc413d" stroke-width="0.25"/>
<path d="M 236.86 211.63 C 238.42 212.91 239.93 214.34 240.85 216.19 C 241.91 220.87 241.70 225.75 242.73 230.45 C 242.04 230.72 240.67 231.25 239.99 231.52 C 239.70 230.91 239.13 229.69 238.85 229.08 C 237.95 225.07 237.33 220.94 235.50 217.21 L 235.07 216.82 C 233.25 216.17 231.40 215.63 229.54 215.14 C 231.41 215.40 233.28 215.64 235.15 215.89 C 235.72 214.47 236.28 213.04 236.86 211.63 Z" fill="#ea695b" opacity="1.00" stroke="#ea695b" stroke-width="0.25"/>
<path d="M 224.33 214.48 C 226.08 214.62 227.81 214.86 229.54 215.14 C 231.40 215.63 233.25 216.17 235.07 216.82 L 235.50 217.21 C 235.13 217.97 234.39 219.49 234.02 220.25 C 233.87 219.98 233.59 219.46 233.44 219.19 C 231.23 217.29 228.38 216.47 225.71 215.45 C 225.40 215.76 224.77 216.39 224.46 216.71 L 223.71 217.47 C 223.87 216.72 224.18 215.23 224.33 214.48 Z" fill="#65292d" opacity="1.00" stroke="#65292d" stroke-width="0.25"/>
<path d="M 224.46 216.71 C 224.77 216.39 225.40 215.76 225.71 215.45 C 228.38 216.47 231.23 217.29 233.44 219.19 C 230.57 220.68 227.33 220.81 224.16 220.82 C 224.24 219.79 224.39 217.74 224.46 216.71 Z" fill="#6fe9de" opacity="1.00" stroke="#6fe9de" stroke-width="0.25"/>
<path d="M 398.13 215.83 C 398.36 220.29 398.53 224.76 398.64 229.23 C 398.97 244.81 399.59 260.42 399.13 276.00 C 398.49 277.74 397.89 279.49 397.38 281.27 C 397.52 281.96 397.82 283.35 397.97 284.04 C 397.45 283.42 396.93 282.80 396.41 282.19 C 394.00 287.15 391.01 291.84 389.05 297.01 C 387.01 302.28 383.98 307.08 381.96 312.35 C 379.00 307.06 377.87 301.02 375.96 295.32 C 374.29 287.87 374.41 280.08 371.96 272.79 C 369.75 275.19 367.69 277.75 366.04 280.59 C 363.48 277.35 362.25 273.21 363.42 269.14 C 365.30 261.69 365.30 253.96 366.58 246.42 C 366.86 243.67 368.83 241.68 370.64 239.80 C 370.64 240.97 370.64 242.15 370.65 243.33 C 372.96 240.76 375.23 238.12 377.95 235.97 C 380.66 233.81 383.31 231.02 387.02 230.90 C 390.27 230.15 394.25 231.13 397.01 229.02 C 398.25 224.80 397.54 220.19 398.13 215.83 Z" fill="#386a32" opacity="1.00" stroke="#386a32" stroke-width="0.25"/>
<path d="M 217.56 222.41 C 219.39 220.87 220.98 219.07 222.58 217.29 C 222.70 218.61 222.84 219.94 222.97 221.26 C 223.21 220.00 223.44 218.73 223.71 217.47 L 224.46 216.71 C 224.39 217.74 224.24 219.79 224.16 220.82 C 227.33 220.81 230.57 220.68 233.44 219.19 C 233.59 219.46 233.87 219.98 234.02 220.25 C 234.60 222.63 234.85 225.10 235.69 227.42 C 236.68 228.09 237.77 228.56 238.85 229.08 C 239.13 229.69 239.70 230.91 239.99 231.52 C 233.38 233.85 226.48 235.21 219.78 237.25 C 217.73 232.78 215.05 228.59 212.57 224.34 C 214.21 223.63 215.91 223.08 217.56 222.41 Z" fill="#fc8c90" opacity="1.00" stroke="#fc8c90" stroke-width="0.25"/>
<path d="M 235.50 217.21 C 237.33 220.94 237.95 225.07 238.85 229.08 C 237.77 228.56 236.68 228.09 235.69 227.42 C 234.85 225.10 234.60 222.63 234.02 220.25 C 234.39 219.49 235.13 217.97 235.50 217.21 Z" fill="#7b0c0a" opacity="1.00" stroke="#7b0c0a" stroke-width="0.25"/>
<path d="M 398.64 229.23 C 403.72 226.01 408.98 223.09 414.34 220.38 C 414.87 222.45 415.28 224.55 415.63 226.66 C 412.55 239.42 408.92 252.06 404.57 264.44 C 403.20 268.49 401.16 272.25 399.13 276.00 C 399.59 260.42 398.97 244.81 398.64 229.23 Z" fill="#7fbe61" opacity="1.00" stroke="#7fbe61" stroke-width="0.25"/>
<path d="M 210.45 225.56 C 210.98 225.25 212.04 224.64 212.57 224.34 C 215.05 228.59 217.73 232.78 219.78 237.25 C 215.80 238.49 211.76 239.53 207.67 240.33 C 204.70 240.85 201.83 241.83 198.86 242.37 C 197.68 242.07 195.00 243.00 195.15 241.14 C 199.89 235.61 206.35 231.70 210.45 225.56 Z" fill="#f97576" opacity="1.00" stroke="#f97576" stroke-width="0.25"/>
<path d="M 191.13 228.84 C 197.76 229.12 204.02 226.73 210.45 225.56 C 206.35 231.70 199.89 235.61 195.15 241.14 C 195.00 243.00 197.68 242.07 198.86 242.37 C 192.55 242.73 187.18 246.59 180.92 247.42 C 181.98 246.67 183.39 246.20 184.04 245.01 C 186.28 240.34 186.46 234.94 188.92 230.36 C 189.66 229.85 190.41 229.37 191.13 228.84 Z" fill="#aa3243" opacity="1.00" stroke="#aa3243" stroke-width="0.25"/>
<path d="M 415.63 226.66 C 418.76 239.32 420.21 252.33 423.41 264.98 C 424.54 269.90 425.19 274.91 426.42 279.81 C 419.98 280.37 413.49 280.10 407.07 280.91 C 403.85 281.29 400.61 281.39 397.38 281.27 C 397.89 279.49 398.49 277.74 399.13 276.00 C 401.16 272.25 403.20 268.49 404.57 264.44 C 408.92 252.06 412.55 239.42 415.63 226.66 Z" fill="#97d673" opacity="1.00" stroke="#97d673" stroke-width="0.25"/>
<path d="M 248.34 238.17 C 257.45 236.06 266.53 233.78 275.57 231.37 C 275.76 231.84 276.13 232.80 276.32 233.27 C 268.90 238.93 261.86 245.11 255.77 252.20 C 253.66 253.60 251.15 254.10 248.71 254.56 C 248.64 249.09 248.30 243.64 248.34 238.17 Z" fill="#faa09c" opacity="1.00" stroke="#faa09c" stroke-width="0.25"/>
<path d="M 275.57 231.37 C 283.24 232.82 289.99 236.97 297.19 239.79 C 306.51 243.33 315.45 247.82 324.91 251.00 C 324.32 251.37 323.12 252.11 322.53 252.47 C 307.00 246.37 291.36 240.49 276.32 233.27 C 276.13 232.80 275.76 231.84 275.57 231.37 Z" fill="#c5b2c9" opacity="1.00" stroke="#c5b2c9" stroke-width="0.25"/>
<path d="M 255.77 252.20 C 261.86 245.11 268.90 238.93 276.32 233.27 C 291.36 240.49 307.00 246.37 322.53 252.47 L 323.48 252.88 C 322.31 257.51 321.38 262.22 321.61 267.02 C 321.51 267.07 321.32 267.15 321.22 267.19 C 320.03 264.28 316.62 264.34 314.08 263.46 C 300.97 259.81 288.48 253.94 275.01 251.65 C 268.53 251.35 261.91 251.11 255.54 252.49 L 255.77 252.20 Z" fill="#932c40" opacity="1.00" stroke="#932c40" stroke-width="0.25"/>
<path d="M 207.67 240.33 C 213.20 240.83 218.98 237.73 224.19 240.53 C 221.77 240.46 219.33 240.73 217.03 241.53 C 216.64 241.66 215.88 241.92 215.49 242.05 C 208.58 242.73 201.98 245.12 195.52 247.55 C 195.47 248.10 195.37 249.18 195.32 249.73 C 192.62 250.13 189.90 250.87 187.16 250.58 C 185.39 249.95 183.88 248.70 182.05 248.30 C 180.00 248.26 177.99 248.72 176.01 249.16 C 177.65 248.59 179.28 247.99 180.92 247.42 C 187.18 246.59 192.55 242.73 198.86 242.37 C 201.83 241.83 204.70 240.85 207.67 240.33 Z" fill="#f5c4d8" opacity="1.00" stroke="#f5c4d8" stroke-width="0.25"/>
<path d="M 140.74 240.59 C 143.08 240.24 145.47 240.19 147.78 240.77 C 149.87 241.78 151.91 242.88 153.94 244.00 C 155.38 246.43 157.59 248.18 159.87 249.75 C 159.41 250.13 158.47 250.88 158.00 251.26 C 151.92 248.49 145.75 245.83 140.00 242.40 C 140.18 241.95 140.55 241.04 140.74 240.59 Z" fill="#b2c2e4" opacity="1.00" stroke="#b2c2e4" stroke-width="0.25"/>
<path d="M 225.15 243.31 C 231.05 242.37 236.82 240.87 242.56 239.24 C 243.95 244.50 243.93 249.97 244.28 255.37 C 241.50 255.55 238.71 255.77 235.97 256.29 C 234.28 250.67 229.57 246.81 225.15 243.31 Z" fill="#fba5a7" opacity="1.00" stroke="#fba5a7" stroke-width="0.25"/>
<path d="M 217.03 241.53 C 219.33 240.73 221.77 240.46 224.19 240.53 L 225.34 242.13 C 223.90 242.63 222.47 243.13 221.03 243.63 C 222.19 243.59 223.34 243.53 224.50 243.47 C 222.88 244.26 221.26 245.06 219.57 245.67 C 218.72 244.29 217.87 242.91 217.03 241.53 Z" fill="#f6c991" opacity="1.00" stroke="#f6c991" stroke-width="0.25"/>
<path d="M 140.00 242.40 C 145.75 245.83 151.92 248.49 158.00 251.26 C 159.66 252.01 161.30 252.80 162.95 253.60 C 178.73 261.61 195.09 268.46 211.09 276.04 C 212.69 276.77 214.37 277.34 216.09 277.74 C 215.88 280.14 215.67 282.55 215.62 284.97 C 215.72 310.97 215.90 336.99 215.66 363.00 C 215.40 370.83 215.65 378.66 216.35 386.47 L 216.33 387.04 C 216.93 387.24 217.54 387.44 218.15 387.63 C 216.79 387.66 215.43 387.70 214.08 387.76 C 207.32 382.95 199.06 381.07 191.74 377.32 C 181.26 373.65 171.31 368.66 160.86 364.90 C 154.13 361.56 146.85 359.33 140.55 355.17 C 140.00 347.28 141.03 339.33 139.83 331.50 C 140.62 301.81 139.91 272.09 140.00 242.40 Z" fill="#99323d" opacity="1.00" stroke="#99323d" stroke-width="0.25"/>
<path d="M 195.52 247.55 C 201.98 245.12 208.58 242.73 215.49 242.05 C 211.79 243.68 208.01 245.14 204.35 246.87 C 201.70 247.47 198.99 248.03 196.54 249.26 C 196.28 249.58 195.75 250.21 195.49 250.52 L 195.21 251.10 L 195.32 249.73 C 195.37 249.18 195.47 248.10 195.52 247.55 Z" fill="#e3a685" opacity="1.00" stroke="#e3a685" stroke-width="0.25"/>
<path d="M 215.49 242.05 C 215.88 241.92 216.64 241.66 217.03 241.53 C 217.87 242.91 218.72 244.29 219.57 245.67 C 216.24 246.38 212.87 246.93 209.52 247.57 C 207.80 247.33 206.07 247.10 204.35 246.87 C 208.01 245.14 211.79 243.68 215.49 242.05 Z" fill="#fcab4a" opacity="1.00" stroke="#fcab4a" stroke-width="0.25"/>
<path d="M 224.50 243.47 L 225.15 243.31 C 229.57 246.81 234.28 250.67 235.97 256.29 C 232.14 257.13 228.25 257.82 224.31 257.86 C 214.28 257.85 206.26 250.63 196.54 249.26 C 200.96 249.89 205.32 248.85 209.52 247.57 C 212.87 246.93 216.24 246.38 219.57 245.67 C 221.26 245.06 222.88 244.26 224.50 243.47 Z" fill="#f78a90" opacity="1.00" stroke="#f78a90" stroke-width="0.25"/>
<path d="M 153.94 244.00 C 158.07 245.70 162.13 247.55 166.15 249.48 C 165.01 249.64 163.88 249.82 162.76 250.03 C 164.78 251.35 166.81 252.65 168.96 253.77 C 166.96 253.60 164.95 253.62 162.95 253.60 C 161.30 252.80 159.66 252.01 158.00 251.26 C 158.47 250.88 159.41 250.13 159.87 249.75 C 157.59 248.18 155.38 246.43 153.94 244.00 Z" fill="#c2cff1" opacity="1.00" stroke="#c2cff1" stroke-width="0.25"/>
<path d="M 196.54 249.26 C 198.99 248.03 201.70 247.47 204.35 246.87 C 206.07 247.10 207.80 247.33 209.52 247.57 C 205.32 248.85 200.96 249.89 196.54 249.26 Z" fill="#feb87c" opacity="1.00" stroke="#feb87c" stroke-width="0.25"/>
<path d="M 105.16 264.23 C 107.46 258.69 109.36 252.96 112.34 247.73 C 112.24 249.38 112.11 251.04 111.95 252.68 C 110.59 257.97 109.26 263.27 108.30 268.65 C 104.63 281.87 101.30 295.26 95.77 307.88 C 94.66 310.29 93.55 312.72 92.54 315.19 C 91.95 314.66 91.37 314.13 90.79 313.61 C 89.68 314.80 88.56 315.98 87.48 317.20 C 90.01 310.35 91.89 303.30 94.28 296.41 C 95.04 294.38 95.19 292.21 94.97 290.07 C 97.86 281.27 101.53 272.74 105.16 264.23 Z" fill="#3c5b21" opacity="1.00" stroke="#3c5b21" stroke-width="0.25"/>
<path d="M 176.01 249.16 C 177.99 248.72 180.00 248.26 182.05 248.30 C 183.88 248.70 185.39 249.95 187.16 250.58 C 189.90 250.87 192.62 250.13 195.32 249.73 L 195.21 251.10 C 195.07 254.31 194.95 257.70 196.12 260.76 C 197.24 262.07 199.11 262.36 200.60 263.10 C 201.70 263.54 202.79 263.98 203.89 264.42 C 207.18 265.78 210.43 267.24 213.75 268.55 C 218.26 270.00 223.08 269.65 227.74 270.19 C 227.67 269.29 227.53 267.49 227.45 266.59 C 232.97 264.82 238.79 266.00 244.46 265.62 L 244.68 265.17 C 245.52 263.59 246.05 261.87 246.52 260.15 C 247.43 263.41 248.63 266.58 249.87 269.73 C 255.92 267.92 262.26 268.39 268.45 267.56 C 270.40 267.52 271.09 269.45 271.82 270.89 C 268.82 272.61 266.17 274.87 263.16 276.57 C 259.07 276.87 254.98 276.37 250.89 276.35 C 242.60 275.78 234.28 275.50 226.00 274.76 C 220.62 274.43 215.02 274.72 210.01 272.37 C 196.36 266.08 182.81 259.58 168.96 253.77 C 166.81 252.65 164.78 251.35 162.76 250.03 C 163.88 249.82 165.01 249.64 166.15 249.48 C 167.97 249.96 169.82 250.38 171.70 250.54 C 173.14 250.10 174.57 249.62 176.01 249.16 Z" fill="#fdfefe" opacity="1.00" stroke="#fdfefe" stroke-width="0.25"/>
<path d="M 195.49 250.52 C 195.75 250.21 196.28 249.58 196.54 249.26 C 206.26 250.63 214.28 257.85 224.31 257.86 L 224.35 259.50 C 219.12 260.06 214.19 262.08 208.98 262.83 C 207.39 263.67 205.75 264.52 203.89 264.42 C 202.79 263.98 201.70 263.54 200.60 263.10 C 199.08 258.83 196.78 254.88 195.49 250.52 Z" fill="#c94054" opacity="1.00" stroke="#c94054" stroke-width="0.25"/>
<path d="M 195.21 251.10 L 195.49 250.52 C 196.78 254.88 199.08 258.83 200.60 263.10 C 199.11 262.36 197.24 262.07 196.12 260.76 C 194.95 257.70 195.07 254.31 195.21 251.10 Z" fill="#ffcedd" opacity="1.00" stroke="#ffcedd" stroke-width="0.25"/>
<path d="M 322.53 252.47 C 323.12 252.11 324.32 251.37 324.91 251.00 C 324.67 255.81 324.93 260.62 325.56 265.38 C 324.24 265.93 322.92 266.47 321.61 267.02 C 321.38 262.22 322.31 257.51 323.48 252.88 L 322.53 252.47 Z" fill="#c2c6e1" opacity="1.00" stroke="#c2c6e1" stroke-width="0.25"/>
<path d="M 248.71 254.56 C 251.15 254.10 253.66 253.60 255.77 252.20 L 255.54 252.49 C 255.11 253.60 254.69 254.72 254.29 255.85 C 254.17 256.16 253.93 256.80 253.80 257.12 C 252.30 257.40 250.79 257.67 249.29 257.96 C 249.10 256.83 248.90 255.71 248.69 254.59 L 248.71 254.56 Z" fill="#aef7ff" opacity="1.00" stroke="#aef7ff" stroke-width="0.25"/>
<path d="M 255.54 252.49 C 261.91 251.11 268.53 251.35 275.01 251.65 C 288.48 253.94 300.97 259.81 314.08 263.46 C 316.62 264.34 320.03 264.28 321.22 267.19 C 317.13 269.03 312.75 270.09 308.38 270.99 C 306.91 270.84 305.45 270.67 303.99 270.48 C 308.75 269.59 313.73 269.32 318.10 267.05 C 311.43 263.93 304.15 262.52 297.34 259.76 C 290.06 256.81 282.40 255.05 274.80 253.14 C 271.71 252.36 268.52 252.71 265.40 253.03 C 261.95 253.38 258.25 253.08 255.20 255.02 L 254.29 255.85 C 254.69 254.72 255.11 253.60 255.54 252.49 Z" fill="#456aab" opacity="1.00" stroke="#456aab" stroke-width="0.25"/>
<path d="M 108.30 268.65 C 109.26 263.27 110.59 257.97 111.95 252.68 L 111.94 252.98 C 111.70 259.69 112.79 266.34 113.25 273.02 C 113.90 280.81 114.13 288.65 115.55 296.36 C 116.35 300.87 117.08 305.39 117.49 309.96 C 116.79 310.50 116.09 311.04 115.39 311.59 C 112.92 307.22 110.99 302.59 109.34 297.87 C 103.58 300.56 101.45 307.20 96.16 310.53 C 96.06 309.86 95.87 308.54 95.77 307.88 C 101.30 295.26 104.63 281.87 108.30 268.65 Z" fill="#3c7b44" opacity="1.00" stroke="#3c7b44" stroke-width="0.25"/>
<path d="M 162.95 253.60 C 164.95 253.62 166.96 253.60 168.96 253.77 C 182.81 259.58 196.36 266.08 210.01 272.37 C 209.87 272.69 209.61 273.35 209.48 273.68 C 217.53 277.12 226.38 277.34 234.99 277.73 C 237.01 277.70 238.84 278.59 240.64 279.39 C 232.45 278.90 224.24 278.61 216.09 277.74 C 214.37 277.34 212.69 276.77 211.09 276.04 C 195.09 268.46 178.73 261.61 162.95 253.60 Z" fill="#bdb2d4" opacity="1.00" stroke="#bdb2d4" stroke-width="0.25"/>
<path d="M 255.20 255.02 C 258.25 253.08 261.95 253.38 265.40 253.03 C 268.30 255.37 271.99 256.95 273.71 260.47 C 277.65 261.76 280.66 264.57 283.09 267.83 C 280.33 267.13 277.50 266.77 274.69 266.35 C 271.49 265.22 268.55 263.43 265.22 262.68 C 260.86 261.74 258.76 257.30 255.20 255.02 Z" fill="#0e92eb" opacity="1.00" stroke="#0e92eb" stroke-width="0.25"/>
<path d="M 265.40 253.03 C 268.52 252.71 271.71 252.36 274.80 253.14 C 282.40 255.05 290.06 256.81 297.34 259.76 C 304.15 262.52 311.43 263.93 318.10 267.05 C 313.73 269.32 308.75 269.59 303.99 270.48 C 305.45 270.67 306.91 270.84 308.38 270.99 C 304.96 271.76 301.54 272.55 298.12 273.33 C 296.70 273.19 295.28 272.97 293.88 272.75 C 290.36 270.96 287.02 268.66 283.09 267.83 C 280.66 264.57 277.65 261.76 273.71 260.47 C 271.99 256.95 268.30 255.37 265.40 253.03 Z" fill="#0476da" opacity="1.00" stroke="#0476da" stroke-width="0.25"/>
<path d="M 111.94 252.98 C 113.96 254.95 115.32 257.45 116.19 260.13 C 118.52 266.99 121.72 273.51 124.51 280.19 C 121.18 282.46 117.74 285.19 116.36 289.12 C 116.54 295.46 118.31 301.65 119.25 307.90 C 119.66 313.14 126.73 313.11 127.92 317.94 C 125.02 316.20 121.97 314.68 118.73 313.65 L 117.86 313.15 C 117.85 313.07 117.83 312.90 117.82 312.82 C 117.73 312.11 117.57 310.68 117.49 309.96 C 117.08 305.39 116.35 300.87 115.55 296.36 C 114.13 288.65 113.90 280.81 113.25 273.02 C 112.79 266.34 111.70 259.69 111.94 252.98 Z" fill="#a7eb91" opacity="1.00" stroke="#a7eb91" stroke-width="0.25"/>
<path d="M 247.10 257.62 C 247.63 256.61 248.18 255.61 248.69 254.59 C 248.90 255.71 249.10 256.83 249.29 257.96 C 249.47 260.17 249.46 262.38 249.49 264.60 C 255.72 266.18 262.10 266.78 268.45 267.56 C 262.26 268.39 255.92 267.92 249.87 269.73 C 248.63 266.58 247.43 263.41 246.52 260.15 C 246.05 261.87 245.52 263.59 244.68 265.17 C 244.70 262.92 244.62 260.69 244.49 258.46 C 245.14 258.25 246.45 257.83 247.10 257.62 Z" fill="#dfffff" opacity="1.00" stroke="#dfffff" stroke-width="0.25"/>
<path d="M 224.31 257.86 C 228.25 257.82 232.14 257.13 235.97 256.29 C 238.71 255.77 241.50 255.55 244.28 255.37 L 244.35 256.36 C 240.30 256.93 236.29 257.72 232.31 258.64 C 229.66 258.96 227.00 259.25 224.35 259.50 L 224.31 257.86 Z" fill="#b6c5ca" opacity="1.00" stroke="#b6c5ca" stroke-width="0.25"/>
<path d="M 254.29 255.85 L 255.20 255.02 C 258.76 257.30 260.86 261.74 265.22 262.68 C 259.91 262.46 254.59 263.12 249.49 264.60 C 249.46 262.38 249.47 260.17 249.29 257.96 C 250.79 257.67 252.30 257.40 253.80 257.12 C 253.93 256.80 254.17 256.16 254.29 255.85 Z" fill="#2bdfef" opacity="1.00" stroke="#2bdfef" stroke-width="0.25"/>
<path d="M 328.19 268.21 C 334.17 263.55 340.58 259.43 347.34 255.97 C 345.44 263.69 347.14 271.61 346.28 279.41 C 339.90 279.59 333.53 279.31 327.15 279.49 C 327.48 280.68 327.80 281.87 328.19 283.05 C 324.20 284.66 321.17 287.81 317.67 290.20 C 317.64 289.76 317.58 288.89 317.55 288.45 C 308.59 285.79 299.81 282.43 290.74 280.16 C 299.73 277.73 308.93 276.26 317.97 274.06 C 321.91 273.23 325.06 270.58 328.19 268.21 Z" fill="#fec6c4" opacity="1.00" stroke="#fec6c4" stroke-width="0.25"/>
<path d="M 232.31 258.64 C 236.29 257.72 240.30 256.93 244.35 256.36 C 244.39 256.88 244.46 257.93 244.49 258.46 C 244.62 260.69 244.70 262.92 244.68 265.17 L 244.46 265.62 C 244.22 265.35 243.74 264.82 243.51 264.55 C 243.42 262.48 243.40 260.41 243.37 258.35 C 239.69 258.78 235.99 258.85 232.31 258.64 Z" fill="#7deef0" opacity="1.00" stroke="#7deef0" stroke-width="0.25"/>
<path d="M 232.31 258.64 C 235.99 258.85 239.69 258.78 243.37 258.35 C 243.40 260.41 243.42 262.48 243.51 264.55 C 236.69 264.52 229.56 262.66 223.00 265.27 C 219.96 266.48 216.91 267.70 213.75 268.55 C 210.43 267.24 207.18 265.78 203.89 264.42 C 205.75 264.52 207.39 263.67 208.98 262.83 C 214.19 262.08 219.12 260.06 224.35 259.50 C 227.00 259.25 229.66 258.96 232.31 258.64 Z" fill="#37e6f6" opacity="1.00" stroke="#37e6f6" stroke-width="0.25"/>
<path d="M 249.49 264.60 C 254.59 263.12 259.91 262.46 265.22 262.68 C 268.55 263.43 271.49 265.22 274.69 266.35 C 275.23 266.55 276.29 266.95 276.83 267.15 C 275.18 268.34 273.55 269.54 271.93 270.76 C 275.39 271.73 278.98 272.28 282.32 273.67 C 286.08 275.70 289.95 272.47 293.88 272.75 C 295.28 272.97 296.70 273.19 298.12 273.33 C 292.16 274.73 286.39 277.09 280.25 277.69 C 276.17 277.80 272.08 277.67 268.00 277.57 C 267.61 277.07 266.82 276.07 266.43 275.57 C 265.82 276.16 265.21 276.75 264.61 277.35 C 260.04 276.95 255.47 276.60 250.89 276.35 C 254.98 276.37 259.07 276.87 263.16 276.57 C 266.17 274.87 268.82 272.61 271.82 270.89 C 271.09 269.45 270.40 267.52 268.45 267.56 C 262.10 266.78 255.72 266.18 249.49 264.60 Z" fill="#7cf7fd" opacity="1.00" stroke="#7cf7fd" stroke-width="0.25"/>
<path d="M 223.00 265.27 C 229.56 262.66 236.69 264.52 243.51 264.55 C 243.74 264.82 244.22 265.35 244.46 265.62 C 238.79 266.00 232.97 264.82 227.45 266.59 C 227.53 267.49 227.67 269.29 227.74 270.19 C 223.08 269.65 218.26 270.00 213.75 268.55 C 216.91 267.70 219.96 266.48 223.00 265.27 Z" fill="#6cecf3" opacity="1.00" stroke="#6cecf3" stroke-width="0.25"/>
<path d="M 274.69 266.35 C 277.50 266.77 280.33 267.13 283.09 267.83 C 287.02 268.66 290.36 270.96 293.88 272.75 C 289.95 272.47 286.08 275.70 282.32 273.67 C 278.98 272.28 275.39 271.73 271.93 270.76 C 273.55 269.54 275.18 268.34 276.83 267.15 C 276.29 266.95 275.23 266.55 274.69 266.35 Z" fill="#14b9f4" opacity="1.00" stroke="#14b9f4" stroke-width="0.25"/>
<path d="M 209.48 273.68 C 209.61 273.35 209.87 272.69 210.01 272.37 C 215.02 274.72 220.62 274.43 226.00 274.76 C 234.28 275.50 242.60 275.78 250.89 276.35 C 255.47 276.60 260.04 276.95 264.61 277.35 C 265.21 276.75 265.82 276.16 266.43 275.57 C 266.82 276.07 267.61 277.07 268.00 277.57 C 272.08 277.67 276.17 277.80 280.25 277.69 C 276.57 278.09 272.84 278.04 269.20 278.76 C 261.18 280.77 252.90 278.93 244.76 279.60 C 243.38 279.57 242.01 279.49 240.64 279.39 C 238.84 278.59 237.01 277.70 234.99 277.73 C 226.38 277.34 217.53 277.12 209.48 273.68 Z" fill="#aac1e0" opacity="1.00" stroke="#aac1e0" stroke-width="0.25"/>
<path d="M 366.04 280.59 C 367.69 277.75 369.75 275.19 371.96 272.79 C 374.41 280.08 374.29 287.87 375.96 295.32 C 370.00 298.09 365.99 303.61 360.18 306.64 C 360.48 307.01 361.09 307.77 361.39 308.14 C 359.73 308.21 358.07 308.27 356.41 308.33 C 357.01 302.73 357.87 297.16 358.63 291.58 C 363.20 289.80 363.55 284.24 366.04 280.59 Z" fill="#2d4d1c" opacity="1.00" stroke="#2d4d1c" stroke-width="0.25"/>
<path d="M 216.09 277.74 C 224.24 278.61 232.45 278.90 240.64 279.39 C 242.01 279.49 243.38 279.57 244.76 279.60 C 248.26 279.70 251.77 279.71 255.24 280.22 C 258.83 282.23 263.07 281.22 266.97 281.78 C 272.77 282.52 278.62 282.44 284.46 282.69 C 284.32 318.07 284.31 353.46 284.67 388.84 C 273.88 387.16 262.94 387.84 252.06 387.58 C 240.16 387.33 228.15 388.48 216.35 386.47 C 215.65 378.66 215.40 370.83 215.66 363.00 C 215.90 336.99 215.72 310.97 215.62 284.97 C 215.67 282.55 215.88 280.14 216.09 277.74 Z" fill="#ac3a43" opacity="1.00" stroke="#ac3a43" stroke-width="0.25"/>
<path d="M 327.15 279.49 C 333.53 279.31 339.90 279.59 346.28 279.41 L 346.28 279.49 C 344.84 284.19 345.52 289.13 345.47 293.96 C 345.54 300.12 344.44 306.21 344.00 312.33 C 342.89 310.28 341.80 308.23 340.74 306.16 C 340.49 306.63 340.00 307.56 339.75 308.03 C 335.62 299.84 331.78 291.48 328.19 283.05 C 327.80 281.87 327.48 280.68 327.15 279.49 Z" fill="#f8656a" opacity="1.00" stroke="#f8656a" stroke-width="0.25"/>
<path d="M 255.24 280.22 C 264.96 280.73 274.78 279.85 284.41 281.47 C 284.42 281.77 284.45 282.38 284.46 282.69 C 278.62 282.44 272.77 282.52 266.97 281.78 C 263.07 281.22 258.83 282.23 255.24 280.22 Z" fill="#945163" opacity="1.00" stroke="#945163" stroke-width="0.25"/>
<path d="M 284.41 281.47 C 286.56 281.27 288.65 280.69 290.74 280.16 C 299.81 282.43 308.59 285.79 317.55 288.45 C 317.58 288.89 317.64 289.76 317.67 290.20 C 317.61 320.28 317.32 350.36 317.45 380.43 C 317.21 380.51 316.75 380.68 316.52 380.76 C 315.98 380.91 314.90 381.23 314.36 381.38 C 317.42 376.83 316.05 371.14 316.30 366.01 C 316.04 360.48 317.30 354.74 315.37 349.41 C 305.94 353.79 298.80 361.73 289.67 366.64 C 288.13 367.65 285.88 368.42 285.65 370.55 C 284.83 376.57 285.68 382.68 285.13 388.73 L 284.67 388.84 C 284.31 353.46 284.32 318.07 284.46 282.69 C 284.45 282.38 284.42 281.77 284.41 281.47 Z" fill="#fb8378" opacity="1.00" stroke="#fb8378" stroke-width="0.25"/>
<path d="M 345.47 293.96 C 345.52 289.13 344.84 284.19 346.28 279.49 C 346.76 293.23 346.26 307.00 346.72 320.76 C 346.38 320.62 345.70 320.35 345.35 320.22 C 343.73 316.05 341.78 312.01 339.75 308.03 C 340.00 307.56 340.49 306.63 340.74 306.16 C 341.80 308.23 342.89 310.28 344.00 312.33 C 344.44 306.21 345.54 300.12 345.47 293.96 Z" fill="#da584c" opacity="1.00" stroke="#da584c" stroke-width="0.25"/>
<path d="M 407.07 280.91 C 413.49 280.10 419.98 280.37 426.42 279.81 L 426.38 280.16 C 422.72 284.22 418.70 287.96 414.95 291.94 C 411.33 295.57 408.14 299.62 404.24 302.96 C 402.63 296.51 400.29 290.26 397.97 284.04 C 397.82 283.35 397.52 281.96 397.38 281.27 C 400.61 281.39 403.85 281.29 407.07 280.91 Z" fill="#a8ea8a" opacity="1.00" stroke="#a8ea8a" stroke-width="0.25"/>
<path d="M 116.36 289.12 C 117.74 285.19 121.18 282.46 124.51 280.19 C 127.02 285.71 128.09 291.74 130.55 297.28 C 132.68 302.28 134.05 307.56 136.24 312.54 C 137.86 316.23 138.64 320.31 137.97 324.34 C 134.66 322.14 131.31 320.01 127.92 317.94 C 126.73 313.11 119.66 313.14 119.25 307.90 C 118.31 301.65 116.54 295.46 116.36 289.12 Z" fill="#9de282" opacity="1.00" stroke="#9de282" stroke-width="0.25"/>
<path d="M 414.95 291.94 C 418.70 287.96 422.72 284.22 426.38 280.16 C 424.92 289.30 421.45 298.02 419.23 307.01 C 417.57 306.95 415.61 305.81 414.16 307.06 C 411.63 309.31 409.70 312.16 407.12 314.37 C 406.10 310.58 405.15 306.77 404.24 302.96 C 408.14 299.62 411.33 295.57 414.95 291.94 Z" fill="#537834" opacity="1.00" stroke="#537834" stroke-width="0.25"/>
<path d="M 396.41 282.19 C 396.93 282.80 397.45 283.42 397.97 284.04 C 400.29 290.26 402.63 296.51 404.24 302.96 C 405.15 306.77 406.10 310.58 407.12 314.37 C 404.01 318.31 401.11 322.67 399.95 327.62 C 398.50 329.20 397.21 330.92 395.93 332.65 L 394.97 331.61 C 394.05 330.63 393.13 329.63 392.29 328.58 C 389.35 322.85 385.03 318.01 381.96 312.35 C 383.98 307.08 387.01 302.28 389.05 297.01 C 391.01 291.84 394.00 287.15 396.41 282.19 Z" fill="#33541c" opacity="1.00" stroke="#33541c" stroke-width="0.25"/>
<path d="M 317.67 290.20 C 321.17 287.81 324.20 284.66 328.19 283.05 C 331.78 291.48 335.62 299.84 339.75 308.03 C 341.78 312.01 343.73 316.05 345.35 320.22 C 345.76 322.24 345.99 324.29 346.26 326.34 C 346.60 326.24 347.28 326.03 347.62 325.93 C 348.23 336.03 348.44 346.13 348.38 356.25 C 348.40 358.73 348.43 361.22 348.48 363.71 C 338.58 368.91 329.22 375.12 319.05 379.80 C 318.65 379.96 317.85 380.28 317.45 380.43 C 317.32 350.36 317.61 320.28 317.67 290.20 Z" fill="#fed2c4" opacity="1.00" stroke="#fed2c4" stroke-width="0.25"/>
<path d="M 94.97 290.07 C 95.19 292.21 95.04 294.38 94.28 296.41 C 91.89 303.30 90.01 310.35 87.48 317.20 C 86.93 318.59 86.44 320.00 86.01 321.44 C 85.84 322.05 85.48 323.27 85.30 323.89 C 85.06 323.58 84.57 322.97 84.33 322.67 C 86.06 311.29 91.08 300.80 94.97 290.07 Z" fill="#28390f" opacity="1.00" stroke="#28390f" stroke-width="0.25"/>
<path d="M 141.14 290.72 C 143.79 292.16 144.50 295.41 146.16 297.74 C 150.11 305.24 155.32 312.12 157.92 320.28 C 156.30 320.19 154.92 319.36 153.59 318.52 C 152.69 319.03 151.80 319.54 150.91 320.07 C 149.30 318.14 147.62 316.28 145.87 314.49 C 144.82 314.76 143.77 315.05 142.72 315.33 C 142.18 314.28 141.88 313.17 141.81 312.00 C 141.35 304.92 140.83 297.82 141.14 290.72 Z" fill="#a53f4e" opacity="1.00" stroke="#a53f4e" stroke-width="0.25"/>
<path d="M 360.18 306.64 C 365.99 303.61 370.00 298.09 375.96 295.32 C 377.87 301.02 379.00 307.06 381.96 312.35 C 385.03 318.01 389.35 322.85 392.29 328.58 C 389.48 330.04 386.57 331.31 383.49 332.04 C 382.92 337.37 383.82 342.70 383.64 348.04 C 383.68 351.27 383.24 354.62 384.27 357.75 C 386.44 358.39 388.68 358.85 390.79 359.74 C 388.47 359.81 386.15 359.85 383.84 359.88 C 383.50 359.59 382.81 359.00 382.47 358.70 C 382.46 357.97 382.45 356.52 382.44 355.79 L 382.42 355.29 C 382.33 348.18 382.38 341.08 382.53 333.97 C 382.39 332.19 382.89 330.04 381.39 328.70 C 374.78 321.79 367.77 315.27 361.39 308.14 C 361.09 307.77 360.48 307.01 360.18 306.64 Z" fill="#2b3c12" opacity="1.00" stroke="#2b3c12" stroke-width="0.25"/>
<path d="M 96.16 310.53 C 101.45 307.20 103.58 300.56 109.34 297.87 C 110.99 302.59 112.92 307.22 115.39 311.59 C 116.09 311.04 116.79 310.50 117.49 309.96 C 117.57 310.68 117.73 312.11 117.82 312.82 C 110.71 316.13 102.53 314.88 95.19 317.55 C 94.31 316.76 93.42 315.97 92.54 315.19 C 93.55 312.72 94.66 310.29 95.77 307.88 C 95.87 308.54 96.06 309.86 96.16 310.53 Z" fill="#336e34" opacity="1.00" stroke="#336e34" stroke-width="0.25"/>
<path d="M 414.16 307.06 C 415.61 305.81 417.57 306.95 419.23 307.01 C 413.09 314.11 407.08 321.46 399.95 327.62 C 401.11 322.67 404.01 318.31 407.12 314.37 C 409.70 312.16 411.63 309.31 414.16 307.06 Z" fill="#718744" opacity="1.00" stroke="#718744" stroke-width="0.25"/>
<path d="M 87.48 317.20 C 88.56 315.98 89.68 314.80 90.79 313.61 C 91.37 314.13 91.95 314.66 92.54 315.19 C 93.42 315.97 94.31 316.76 95.19 317.55 C 102.53 314.88 110.71 316.13 117.82 312.82 C 117.83 312.90 117.85 313.07 117.86 313.15 C 116.89 317.11 115.32 320.89 113.82 324.67 C 110.75 330.46 109.59 337.02 106.51 342.79 C 102.01 334.72 96.75 327.11 91.86 319.27 C 91.00 320.69 90.14 322.11 89.36 323.57 C 88.24 322.86 87.13 322.14 86.01 321.44 C 86.44 320.00 86.93 318.59 87.48 317.20 Z" fill="#366229" opacity="1.00" stroke="#366229" stroke-width="0.25"/>
<path d="M 113.82 324.67 C 115.32 320.89 116.89 317.11 117.86 313.15 L 118.73 313.65 C 120.60 321.51 124.73 328.55 127.21 336.20 C 124.21 337.82 121.10 339.22 118.12 340.85 C 116.10 335.62 115.48 330.00 113.82 324.67 Z" fill="#243d13" opacity="1.00" stroke="#243d13" stroke-width="0.25"/>
<path d="M 118.73 313.65 C 121.97 314.68 125.02 316.20 127.92 317.94 C 131.31 320.01 134.66 322.14 137.97 324.34 C 137.85 325.36 137.71 326.38 137.57 327.40 C 135.67 329.42 133.84 331.50 131.99 333.57 C 134.41 332.78 136.90 332.24 139.43 331.95 C 139.39 337.58 139.39 343.21 139.32 348.85 C 136.71 348.58 133.66 349.22 131.41 347.59 C 130.23 345.04 129.78 342.23 128.66 339.66 C 128.20 338.50 127.67 337.36 127.21 336.20 C 124.73 328.55 120.60 321.51 118.73 313.65 Z" fill="#5a8c41" opacity="1.00" stroke="#5a8c41" stroke-width="0.25"/>
<path d="M 89.36 323.57 C 90.14 322.11 91.00 320.69 91.86 319.27 C 96.75 327.11 102.01 334.72 106.51 342.79 C 108.32 343.79 110.25 344.52 112.14 345.35 L 112.05 346.62 C 108.57 345.62 104.70 344.85 101.70 347.48 C 101.62 347.06 101.44 346.24 101.36 345.83 C 102.38 345.35 103.41 344.86 104.42 344.35 C 102.54 344.39 100.75 344.92 99.20 345.99 C 98.54 346.04 97.23 346.14 96.57 346.19 C 98.54 344.41 100.77 342.96 103.07 341.66 C 102.57 341.26 101.56 340.47 101.06 340.07 C 96.22 336.65 91.13 333.51 85.69 331.15 C 86.93 328.63 88.10 326.08 89.36 323.57 Z" fill="#28390f" opacity="1.00" stroke="#28390f" stroke-width="0.25"/>
<path d="M 86.01 321.44 C 87.13 322.14 88.24 322.86 89.36 323.57 C 88.10 326.08 86.93 328.63 85.69 331.15 C 85.09 330.90 83.89 330.39 83.29 330.13 C 83.57 327.63 83.90 325.14 84.33 322.67 C 84.57 322.97 85.06 323.58 85.30 323.89 C 85.48 323.27 85.84 322.05 86.01 321.44 Z" fill="#586e30" opacity="1.00" stroke="#586e30" stroke-width="0.25"/>
<path d="M 106.51 342.79 C 109.59 337.02 110.75 330.46 113.82 324.67 C 115.48 330.00 116.10 335.62 118.12 340.85 C 117.01 341.88 115.97 342.98 114.87 344.02 C 113.95 344.46 113.04 344.90 112.14 345.35 C 110.25 344.52 108.32 343.79 106.51 342.79 Z" fill="#274b18" opacity="1.00" stroke="#274b18" stroke-width="0.25"/>
<path d="M 347.62 325.93 C 348.74 325.67 349.97 325.28 351.05 325.95 C 361.34 330.68 371.56 335.58 381.64 340.75 C 381.72 345.26 382.40 349.89 381.05 354.28 C 381.39 354.53 382.08 355.04 382.42 355.29 L 382.44 355.79 C 371.08 355.33 359.73 356.38 348.38 356.25 C 348.44 346.13 348.23 336.03 347.62 325.93 Z" fill="#9fd160" opacity="1.00" stroke="#9fd160" stroke-width="0.25"/>
<path d="M 383.49 332.04 C 386.57 331.31 389.48 330.04 392.29 328.58 C 393.13 329.63 394.05 330.63 394.97 331.61 C 394.75 332.32 394.30 333.74 394.08 334.45 C 393.24 333.45 392.40 332.46 391.57 331.48 C 390.78 334.23 390.29 337.07 390.42 339.94 C 390.64 346.54 390.16 353.16 390.86 359.74 L 390.79 359.74 C 388.68 358.85 386.44 358.39 384.27 357.75 C 383.24 354.62 383.68 351.27 383.64 348.04 C 383.82 342.70 382.92 337.37 383.49 332.04 Z" fill="#552d26" opacity="1.00" stroke="#552d26" stroke-width="0.25"/>
<path d="M 139.83 331.50 C 141.03 339.33 140.00 347.28 140.55 355.17 C 146.85 359.33 154.13 361.56 160.86 364.90 C 171.31 368.66 181.26 373.65 191.74 377.32 C 199.06 381.07 207.32 382.95 214.08 387.76 C 206.85 388.04 199.62 388.47 192.38 388.25 C 189.29 387.80 186.17 387.47 183.04 387.58 C 173.04 387.80 163.03 387.66 153.04 388.24 C 148.64 388.49 144.11 388.17 139.91 389.77 C 138.82 389.34 137.72 388.91 136.63 388.49 C 128.19 384.57 119.62 380.93 111.17 377.03 C 114.27 376.26 117.48 376.11 120.61 375.49 C 122.90 374.77 123.42 372.08 124.36 370.19 C 126.22 364.94 131.28 360.98 130.92 354.99 C 134.01 355.13 137.10 355.02 140.18 354.86 C 140.02 352.85 139.82 350.85 139.67 348.86 C 139.39 343.07 139.46 337.27 139.83 331.50 Z" fill="#427636" opacity="1.00" stroke="#427636" stroke-width="0.25"/>
<path d="M 390.42 339.94 C 390.29 337.07 390.78 334.23 391.57 331.48 C 392.40 332.46 393.24 333.45 394.08 334.45 C 392.99 342.80 393.68 351.29 393.61 359.70 C 392.92 359.71 391.55 359.73 390.86 359.74 C 390.16 353.16 390.64 346.54 390.42 339.94 Z" fill="#8c3c40" opacity="1.00" stroke="#8c3c40" stroke-width="0.25"/>
<path d="M 394.97 331.61 L 395.93 332.65 C 396.60 337.39 396.20 342.18 396.37 346.95 C 396.38 351.15 396.70 355.42 395.68 359.55 C 395.16 359.59 394.13 359.67 393.61 359.70 C 393.68 351.29 392.99 342.80 394.08 334.45 C 394.30 333.74 394.75 332.32 394.97 331.61 Z" fill="#c48072" opacity="1.00" stroke="#c48072" stroke-width="0.25"/>
<path d="M 118.12 340.85 C 121.10 339.22 124.21 337.82 127.21 336.20 C 127.67 337.36 128.20 338.50 128.66 339.66 C 128.85 341.87 129.23 344.55 127.06 345.96 C 123.47 343.38 119.06 343.23 114.87 344.02 C 115.97 342.98 117.01 341.88 118.12 340.85 Z" fill="#4c7434" opacity="1.00" stroke="#4c7434" stroke-width="0.25"/>
<path d="M 127.06 345.96 C 129.23 344.55 128.85 341.87 128.66 339.66 C 129.78 342.23 130.23 345.04 131.41 347.59 C 133.66 349.22 136.71 348.58 139.32 348.85 L 139.67 348.86 C 139.82 350.85 140.02 352.85 140.18 354.86 C 137.10 355.02 134.01 355.13 130.92 354.99 C 130.61 354.63 130.00 353.91 129.69 353.55 C 129.66 353.01 129.59 351.92 129.56 351.38 C 129.49 350.09 129.45 348.80 129.41 347.51 C 128.62 346.98 127.85 346.46 127.06 345.96 Z" fill="#31611f" opacity="1.00" stroke="#31611f" stroke-width="0.25"/>
<path d="M 87.80 344.12 C 92.19 342.67 96.56 341.16 101.06 340.07 C 101.56 340.47 102.57 341.26 103.07 341.66 C 100.77 342.96 98.54 344.41 96.57 346.19 C 97.23 346.14 98.54 346.04 99.20 345.99 C 97.93 347.49 96.26 348.49 94.35 349.00 C 94.43 349.77 94.50 350.55 94.59 351.33 C 94.98 354.36 95.43 357.39 95.80 360.42 C 93.56 360.22 91.32 360.11 89.08 360.03 C 89.43 359.68 90.12 358.98 90.46 358.63 C 89.84 357.63 89.21 356.64 88.59 355.65 C 86.97 356.99 85.11 357.94 82.96 357.39 C 86.29 354.31 88.43 350.31 89.83 346.05 C 89.32 345.56 88.31 344.60 87.80 344.12 Z" fill="#3e6a2e" opacity="1.00" stroke="#3e6a2e" stroke-width="0.25"/>
<path d="M 114.87 344.02 C 119.06 343.23 123.47 343.38 127.06 345.96 C 127.85 346.46 128.62 346.98 129.41 347.51 C 129.45 348.80 129.49 350.09 129.56 351.38 C 127.25 352.88 124.79 354.37 121.94 354.45 C 113.15 355.56 103.50 355.98 95.44 351.73 C 96.18 351.82 97.66 352.00 98.40 352.09 C 107.25 354.55 116.87 355.18 125.56 351.77 C 126.97 351.26 127.95 350.09 128.99 349.09 C 127.31 348.11 125.63 347.15 123.96 346.17 C 123.47 347.62 122.89 349.08 121.73 350.15 C 119.35 348.18 116.71 346.44 113.61 345.91 C 113.29 347.36 112.96 348.82 112.61 350.27 L 111.60 350.34 C 111.76 349.10 111.93 347.86 112.05 346.62 L 112.14 345.35 C 113.04 344.90 113.95 344.46 114.87 344.02 Z" fill="#c6805b" opacity="1.00" stroke="#c6805b" stroke-width="0.25"/>
<path d="M 99.20 345.99 C 100.75 344.92 102.54 344.39 104.42 344.35 C 103.41 344.86 102.38 345.35 101.36 345.83 C 101.44 346.24 101.62 347.06 101.70 347.48 C 102.40 348.70 103.17 349.89 103.94 351.07 C 102.08 351.34 100.25 351.74 98.40 352.09 C 97.66 352.00 96.18 351.82 95.44 351.73 L 94.59 351.33 C 94.50 350.55 94.43 349.77 94.35 349.00 C 96.26 348.49 97.93 347.49 99.20 345.99 Z" fill="#f2c4ab" opacity="1.00" stroke="#f2c4ab" stroke-width="0.25"/>
<path d="M 59.47 352.97 C 69.04 350.43 78.39 347.16 87.80 344.12 C 88.31 344.60 89.32 345.56 89.83 346.05 C 88.43 350.31 86.29 354.31 82.96 357.39 C 85.11 357.94 86.97 356.99 88.59 355.65 C 89.21 356.64 89.84 357.63 90.46 358.63 C 90.12 358.98 89.43 359.68 89.08 360.03 C 86.55 359.89 83.92 360.01 81.74 361.46 C 83.29 361.75 84.85 362.01 86.41 362.23 C 84.94 362.94 83.50 363.72 82.05 364.49 C 74.48 360.82 65.70 358.94 59.47 352.97 Z" fill="#437932" opacity="1.00" stroke="#437932" stroke-width="0.25"/>
<path d="M 101.70 347.48 C 104.70 344.85 108.57 345.62 112.05 346.62 C 111.93 347.86 111.76 349.10 111.60 350.34 C 109.04 350.55 106.49 350.76 103.94 351.07 C 103.17 349.89 102.40 348.70 101.70 347.48 Z" fill="#925c3c" opacity="1.00" stroke="#925c3c" stroke-width="0.25"/>
<path d="M 113.61 345.91 C 116.71 346.44 119.35 348.18 121.73 350.15 C 118.75 351.16 115.64 350.50 112.61 350.27 C 112.96 348.82 113.29 347.36 113.61 345.91 Z" fill="#7d4522" opacity="1.00" stroke="#7d4522" stroke-width="0.25"/>
<path d="M 123.96 346.17 C 125.63 347.15 127.31 348.11 128.99 349.09 C 127.95 350.09 126.97 351.26 125.56 351.77 C 116.87 355.18 107.25 354.55 98.40 352.09 C 100.25 351.74 102.08 351.34 103.94 351.07 C 106.49 350.76 109.04 350.55 111.60 350.34 L 112.61 350.27 C 115.64 350.50 118.75 351.16 121.73 350.15 C 122.89 349.08 123.47 347.62 123.96 346.17 Z" fill="#ffe0c3" opacity="1.00" stroke="#ffe0c3" stroke-width="0.25"/>
<path d="M 396.37 346.95 C 397.68 347.36 399.02 347.75 400.31 348.26 C 399.51 348.54 397.89 349.09 397.09 349.36 C 396.99 352.15 396.34 355.32 398.33 357.64 C 402.84 363.47 408.64 368.38 415.44 371.33 C 415.77 372.78 416.11 374.23 416.45 375.69 C 418.35 376.52 420.25 377.35 422.15 378.17 C 420.14 378.68 418.17 379.30 416.18 379.88 C 416.31 379.44 416.56 378.55 416.68 378.10 C 409.04 379.39 401.32 380.44 393.88 382.64 C 395.33 382.91 396.78 383.16 398.25 383.39 C 396.76 384.08 395.33 384.88 393.89 385.68 C 395.81 385.54 397.74 385.41 399.67 385.27 C 399.64 385.99 399.61 386.73 399.59 387.46 C 399.26 387.50 398.59 387.59 398.25 387.63 C 386.44 387.59 374.95 390.93 363.32 392.58 C 355.34 393.15 347.39 395.68 339.38 394.48 C 332.69 392.19 326.00 389.84 319.51 387.01 C 328.57 383.89 338.44 386.38 347.58 383.68 C 348.10 376.96 348.18 370.20 349.10 363.52 C 360.71 362.63 372.21 360.58 383.84 359.88 C 386.15 359.85 388.47 359.81 390.79 359.74 L 390.86 359.74 C 391.55 359.73 392.92 359.71 393.61 359.70 C 394.13 359.67 395.16 359.59 395.68 359.55 C 396.70 355.42 396.38 351.15 396.37 346.95 Z" fill="#9bcc59" opacity="1.00" stroke="#9bcc59" stroke-width="0.25"/>
<path d="M 397.09 349.36 C 397.89 349.09 399.51 348.54 400.31 348.26 C 406.77 351.69 413.75 354.00 420.12 357.62 C 430.08 361.83 439.67 366.81 449.50 371.33 C 440.37 373.56 431.32 376.10 422.15 378.17 C 420.25 377.35 418.35 376.52 416.45 375.69 C 416.11 374.23 415.77 372.78 415.44 371.33 C 408.64 368.38 402.84 363.47 398.33 357.64 C 396.34 355.32 396.99 352.15 397.09 349.36 Z" fill="#97d360" opacity="1.00" stroke="#97d360" stroke-width="0.25"/>
<path d="M 289.67 366.64 C 298.80 361.73 305.94 353.79 315.37 349.41 C 317.30 354.74 316.04 360.48 316.30 366.01 C 316.05 371.14 317.42 376.83 314.36 381.38 C 306.94 383.17 299.37 384.57 292.29 387.51 C 289.88 387.82 287.48 388.15 285.13 388.73 C 285.68 382.68 284.83 376.57 285.65 370.55 C 285.88 368.42 288.13 367.65 289.67 366.64 Z" fill="#f7736e" opacity="1.00" stroke="#f7736e" stroke-width="0.25"/>
<path d="M 94.59 351.33 L 95.44 351.73 C 103.50 355.98 113.15 355.56 121.94 354.45 C 124.79 354.37 127.25 352.88 129.56 351.38 C 129.59 351.92 129.66 353.01 129.69 353.55 C 129.39 356.13 129.16 358.80 128.18 361.24 C 125.02 364.50 120.37 365.72 115.99 366.22 C 109.14 367.03 102.05 365.66 96.05 362.24 C 95.99 361.78 95.86 360.88 95.80 360.42 C 95.43 357.39 94.98 354.36 94.59 351.33 Z" fill="#5d2d18" opacity="1.00" stroke="#5d2d18" stroke-width="0.25"/>
<path d="M 59.52 360.26 C 59.42 357.83 59.45 355.40 59.47 352.97 C 65.70 358.94 74.48 360.82 82.05 364.49 C 84.57 365.56 87.09 366.64 89.62 367.67 C 89.04 369.74 89.01 371.90 88.48 373.98 C 78.91 369.83 69.28 365.84 59.60 361.96 C 59.58 361.53 59.54 360.68 59.52 360.26 Z" fill="#315218" opacity="1.00" stroke="#315218" stroke-width="0.25"/>
<path d="M 129.69 353.55 C 130.00 353.91 130.61 354.63 130.92 354.99 C 131.28 360.98 126.22 364.94 124.36 370.19 C 123.42 372.08 122.90 374.77 120.61 375.49 C 117.48 376.11 114.27 376.26 111.17 377.03 C 103.62 374.78 96.85 370.69 89.62 367.67 C 87.09 366.64 84.57 365.56 82.05 364.49 C 83.50 363.72 84.94 362.94 86.41 362.23 C 89.62 362.00 92.85 361.84 96.05 362.24 C 102.05 365.66 109.14 367.03 115.99 366.22 C 120.37 365.72 125.02 364.50 128.18 361.24 C 129.16 358.80 129.39 356.13 129.69 353.55 Z" fill="#446834" opacity="1.00" stroke="#446834" stroke-width="0.25"/>
<path d="M 348.38 356.25 C 359.73 356.38 371.08 355.33 382.44 355.79 C 382.45 356.52 382.46 357.97 382.47 358.70 C 382.81 359.00 383.50 359.59 383.84 359.88 C 372.21 360.58 360.71 362.63 349.10 363.52 L 348.48 363.71 C 348.43 361.22 348.40 358.73 348.38 356.25 Z" fill="#428d34" opacity="1.00" stroke="#428d34" stroke-width="0.25"/>
<path d="M 44.94 361.90 C 49.63 360.27 54.61 360.19 59.52 360.26 C 59.54 360.68 59.58 361.53 59.60 361.96 C 69.28 365.84 78.91 369.83 88.48 373.98 C 104.95 381.35 121.57 388.36 138.07 395.67 C 158.82 404.71 179.51 413.85 200.35 422.67 C 212.22 427.98 224.35 432.71 235.99 438.52 C 232.46 440.11 228.60 439.13 224.94 438.74 C 211.24 436.87 197.41 436.07 183.69 434.46 C 187.50 433.28 191.47 432.70 195.32 431.66 C 193.57 430.67 191.78 429.71 189.81 429.25 C 175.32 425.79 160.62 423.10 146.37 418.71 C 139.58 416.27 132.93 413.40 126.28 410.61 C 117.90 406.44 108.92 403.68 100.55 399.49 C 89.96 395.25 79.68 390.29 69.16 385.89 C 67.52 385.19 65.71 385.22 63.96 385.28 C 53.31 385.82 42.69 387.01 32.03 387.35 C 21.31 386.67 10.69 384.93 0.00 383.90 L 0.00 373.04 C 14.25 372.14 28.37 369.79 42.60 368.58 C 48.51 367.46 54.85 368.08 60.44 365.58 C 55.25 364.45 49.87 364.03 44.94 361.90 Z" fill="#dcb17d" opacity="1.00" stroke="#dcb17d" stroke-width="0.25"/>
<path d="M 81.74 361.46 C 83.92 360.01 86.55 359.89 89.08 360.03 C 91.32 360.11 93.56 360.22 95.80 360.42 C 95.86 360.88 95.99 361.78 96.05 362.24 C 92.85 361.84 89.62 362.00 86.41 362.23 C 84.85 362.01 83.29 361.75 81.74 361.46 Z" fill="#739b54" opacity="1.00" stroke="#739b54" stroke-width="0.25"/>
<path d="M 348.48 363.71 L 349.10 363.52 C 348.18 370.20 348.10 376.96 347.58 383.68 C 338.44 386.38 328.57 383.89 319.51 387.01 C 319.29 387.16 318.85 387.44 318.63 387.59 C 318.13 389.04 317.69 390.52 317.32 392.02 C 317.15 390.30 316.91 388.59 316.70 386.89 C 317.70 384.60 318.47 382.23 319.05 379.80 C 329.22 375.12 338.58 368.91 348.48 363.71 Z" fill="#aade6b" opacity="1.00" stroke="#aade6b" stroke-width="0.25"/>
<path d="M 89.62 367.67 C 96.85 370.69 103.62 374.78 111.17 377.03 C 119.62 380.93 128.19 384.57 136.63 388.49 C 137.75 390.72 138.38 393.16 138.07 395.67 C 121.57 388.36 104.95 381.35 88.48 373.98 C 89.01 371.90 89.04 369.74 89.62 367.67 Z" fill="#375c1b" opacity="1.00" stroke="#375c1b" stroke-width="0.25"/>
<path d="M 422.15 378.17 C 431.32 376.10 440.37 373.56 449.50 371.33 C 449.49 373.95 449.49 376.59 449.49 379.22 C 438.30 382.69 427.00 385.73 415.80 389.14 C 409.85 391.10 403.90 393.04 397.84 394.63 C 398.34 393.12 398.85 391.62 399.36 390.12 C 398.13 389.52 396.89 388.91 395.67 388.32 C 396.32 388.15 397.61 387.80 398.25 387.63 C 398.59 387.59 399.26 387.50 399.59 387.46 C 399.61 386.73 399.64 385.99 399.67 385.27 C 397.74 385.41 395.81 385.54 393.89 385.68 C 395.33 384.88 396.76 384.08 398.25 383.39 C 404.20 382.11 410.30 381.53 416.18 379.88 C 418.17 379.30 420.14 378.68 422.15 378.17 Z" fill="#86be4d" opacity="1.00" stroke="#86be4d" stroke-width="0.25"/>
<path d="M 393.88 382.64 C 401.32 380.44 409.04 379.39 416.68 378.10 C 416.56 378.55 416.31 379.44 416.18 379.88 C 410.30 381.53 404.20 382.11 398.25 383.39 C 396.78 383.16 395.33 382.91 393.88 382.64 Z" fill="#aada73" opacity="1.00" stroke="#aada73" stroke-width="0.25"/>
<path d="M 317.45 380.43 C 317.85 380.28 318.65 379.96 319.05 379.80 C 318.47 382.23 317.70 384.60 316.70 386.89 C 307.81 388.65 298.67 388.18 289.77 389.90 C 287.17 390.36 284.55 390.72 281.92 390.86 C 274.73 390.84 267.54 390.49 260.35 390.43 C 246.91 390.12 233.47 389.73 220.02 389.42 C 217.91 389.43 215.78 389.08 214.08 387.76 C 215.43 387.70 216.79 387.66 218.15 387.63 C 233.74 388.28 249.34 388.52 264.95 388.69 C 271.51 388.72 278.16 390.22 284.67 388.84 L 285.13 388.73 C 287.48 388.15 289.88 387.82 292.29 387.51 C 298.24 388.07 304.10 386.78 310.02 386.37 C 311.85 386.16 313.75 386.09 315.49 385.38 C 317.14 384.43 316.32 382.29 316.52 380.76 C 316.75 380.68 317.21 380.51 317.45 380.43 Z" fill="#c0c271" opacity="1.00" stroke="#c0c271" stroke-width="0.25"/>
<path d="M 292.29 387.51 C 299.37 384.57 306.94 383.17 314.36 381.38 C 314.90 381.23 315.98 380.91 316.52 380.76 C 316.32 382.29 317.14 384.43 315.49 385.38 C 313.75 386.09 311.85 386.16 310.02 386.37 C 304.10 386.78 298.24 388.07 292.29 387.51 Z" fill="#ffb8b2" opacity="1.00" stroke="#ffb8b2" stroke-width="0.25"/>
<path d="M 216.33 387.04 L 216.35 386.47 C 228.15 388.48 240.16 387.33 252.06 387.58 C 262.94 387.84 273.88 387.16 284.67 388.84 C 278.16 390.22 271.51 388.72 264.95 388.69 C 249.34 388.52 233.74 388.28 218.15 387.63 C 217.54 387.44 216.93 387.24 216.33 387.04 Z" fill="#5d2d18" opacity="1.00" stroke="#5d2d18" stroke-width="0.25"/>
<path d="M 289.77 389.90 C 298.67 388.18 307.81 388.65 316.70 386.89 C 316.91 388.59 317.15 390.30 317.32 392.02 L 317.17 392.82 C 314.01 400.77 308.04 407.14 302.22 413.22 C 296.47 415.22 290.09 414.82 284.09 415.90 C 283.74 410.83 283.20 405.77 282.70 400.71 C 281.87 400.66 281.05 400.61 280.23 400.57 C 279.99 398.74 279.76 396.92 279.53 395.10 C 277.43 395.29 275.35 395.48 273.26 395.68 C 272.92 395.28 272.25 394.49 271.92 394.09 C 274.82 393.88 277.74 393.87 280.65 394.07 C 280.94 395.69 281.23 397.32 281.53 398.96 C 282.25 396.98 282.96 395.00 283.65 393.01 C 283.07 392.29 282.49 391.57 281.92 390.86 C 284.55 390.72 287.17 390.36 289.77 389.90 Z" fill="#a1d257" opacity="1.00" stroke="#a1d257" stroke-width="0.25"/>
<path d="M 318.63 387.59 C 318.85 387.44 319.29 387.16 319.51 387.01 C 326.00 389.84 332.69 392.19 339.38 394.48 C 347.39 395.68 355.34 393.15 363.32 392.58 C 359.76 395.23 355.23 395.67 351.21 397.30 C 352.45 397.76 353.69 398.22 354.94 398.67 C 351.27 399.14 347.62 399.75 344.00 400.55 C 345.69 401.24 347.38 401.92 349.08 402.61 C 339.09 405.48 329.12 408.41 319.14 411.29 C 317.87 411.25 316.61 411.20 315.35 411.14 C 315.70 405.01 316.36 398.90 317.17 392.82 L 317.32 392.02 C 317.69 390.52 318.13 389.04 318.63 387.59 Z" fill="#d5efa5" opacity="1.00" stroke="#d5efa5" stroke-width="0.25"/>
<path d="M 363.32 392.58 C 374.95 390.93 386.44 387.59 398.25 387.63 C 397.61 387.80 396.32 388.15 395.67 388.32 C 380.17 393.19 364.64 397.95 349.08 402.61 C 347.38 401.92 345.69 401.24 344.00 400.55 C 347.62 399.75 351.27 399.14 354.94 398.67 C 353.69 398.22 352.45 397.76 351.21 397.30 C 355.23 395.67 359.76 395.23 363.32 392.58 Z" fill="#d6efb5" opacity="1.00" stroke="#d6efb5" stroke-width="0.25"/>
<path d="M 139.91 389.77 C 144.11 388.17 148.64 388.49 153.04 388.24 C 163.03 387.66 173.04 387.80 183.04 387.58 C 186.17 387.47 189.29 387.80 192.38 388.25 C 185.73 391.63 178.15 391.04 170.96 391.92 C 164.50 392.66 158.05 393.45 151.67 394.71 C 147.72 393.13 143.85 391.36 139.91 389.77 Z" fill="#68a145" opacity="1.00" stroke="#68a145" stroke-width="0.25"/>
<path d="M 192.38 388.25 C 199.62 388.47 206.85 388.04 214.08 387.76 C 215.78 389.08 217.91 389.43 220.02 389.42 C 233.47 389.73 246.91 390.12 260.35 390.43 C 245.82 392.11 231.16 393.09 216.53 393.18 C 214.56 393.29 212.64 393.87 210.98 394.96 C 203.18 399.91 195.89 405.70 187.68 410.00 C 175.63 405.01 163.68 399.78 151.67 394.71 C 158.05 393.45 164.50 392.66 170.96 391.92 C 178.15 391.04 185.73 391.63 192.38 388.25 Z" fill="#9ed561" opacity="1.00" stroke="#9ed561" stroke-width="0.25"/>
<path d="M 138.07 395.67 C 138.38 393.16 137.75 390.72 136.63 388.49 C 137.72 388.91 138.82 389.34 139.91 389.77 C 143.85 391.36 147.72 393.13 151.67 394.71 C 163.68 399.78 175.63 405.01 187.68 410.00 C 188.77 410.43 189.87 410.87 190.97 411.32 C 206.79 418.28 222.90 424.61 238.47 432.14 C 238.32 434.10 238.16 436.06 237.97 438.03 L 237.43 439.20 C 237.07 439.03 236.35 438.69 235.99 438.52 C 224.35 432.71 212.22 427.98 200.35 422.67 C 179.51 413.85 158.82 404.71 138.07 395.67 Z" fill="#2d561a" opacity="1.00" stroke="#2d561a" stroke-width="0.25"/>
<path d="M 349.08 402.61 C 364.64 397.95 380.17 393.19 395.67 388.32 C 396.89 388.91 398.13 389.52 399.36 390.12 C 398.85 391.62 398.34 393.12 397.84 394.63 C 350.97 408.20 304.31 422.51 257.25 435.43 C 250.72 436.98 244.22 439.44 237.43 439.20 L 237.97 438.03 C 238.91 436.54 239.90 435.09 240.88 433.64 C 253.35 427.80 267.39 427.22 280.23 422.53 C 293.24 418.93 306.28 415.42 319.14 411.29 C 329.12 408.41 339.09 405.48 349.08 402.61 Z" fill="#83bb41" opacity="1.00" stroke="#83bb41" stroke-width="0.25"/>
<path d="M 260.35 390.43 C 267.54 390.49 274.73 390.84 281.92 390.86 C 282.49 391.57 283.07 392.29 283.65 393.01 C 282.96 395.00 282.25 396.98 281.53 398.96 C 281.23 397.32 280.94 395.69 280.65 394.07 C 277.74 393.87 274.82 393.88 271.92 394.09 C 272.25 394.49 272.92 395.28 273.26 395.68 C 275.35 395.48 277.43 395.29 279.53 395.10 C 279.76 396.92 279.99 398.74 280.23 400.57 C 281.05 400.61 281.87 400.66 282.70 400.71 C 283.20 405.77 283.74 410.83 284.09 415.90 C 265.93 418.59 247.95 422.39 229.74 424.81 C 231.12 425.11 232.52 425.35 233.94 425.23 C 245.68 424.12 257.33 422.21 268.94 420.14 C 273.38 419.35 277.87 418.85 282.39 418.68 C 282.34 419.24 282.24 420.35 282.20 420.90 C 280.85 420.71 279.51 420.54 278.17 420.36 C 278.85 421.08 279.54 421.80 280.23 422.53 C 267.39 427.22 253.35 427.80 240.88 433.64 C 239.90 435.09 238.91 436.54 237.97 438.03 C 238.16 436.06 238.32 434.10 238.47 432.14 C 222.90 424.61 206.79 418.28 190.97 411.32 C 198.53 404.04 208.58 400.02 216.53 393.18 C 231.16 393.09 245.82 392.11 260.35 390.43 Z" fill="#98c955" opacity="1.00" stroke="#98c955" stroke-width="0.25"/>
<path d="M 210.98 394.96 C 212.64 393.87 214.56 393.29 216.53 393.18 C 208.58 400.02 198.53 404.04 190.97 411.32 C 189.87 410.87 188.77 410.43 187.68 410.00 C 195.89 405.70 203.18 399.91 210.98 394.96 Z" fill="#bfea89" opacity="1.00" stroke="#bfea89" stroke-width="0.25"/>
<path d="M 302.22 413.22 C 308.04 407.14 314.01 400.77 317.17 392.82 C 316.36 398.90 315.70 405.01 315.35 411.14 C 316.61 411.20 317.87 411.25 319.14 411.29 C 306.28 415.42 293.24 418.93 280.23 422.53 C 279.54 421.80 278.85 421.08 278.17 420.36 C 279.51 420.54 280.85 420.71 282.20 420.90 C 282.24 420.35 282.34 419.24 282.39 418.68 C 277.87 418.85 273.38 419.35 268.94 420.14 C 257.33 422.21 245.68 424.12 233.94 425.23 C 232.52 425.35 231.12 425.11 229.74 424.81 C 247.95 422.39 265.93 418.59 284.09 415.90 C 290.09 414.82 296.47 415.22 302.22 413.22 Z" fill="#b9e075" opacity="1.00" stroke="#b9e075" stroke-width="0.25"/>
</svg>